<svg width="720" height="640" viewBox="0 0 720 640" fill="black" xmlns="http://www.w3.org/2000/svg">
  <g xmlns="http://www.w3.org/2000/svg" fill="none" fill-rule="evenodd">
    <rect width="720" height="640"/>
  </g>
<g transform="translate(120, 80)"><path xmlns="http://www.w3.org/2000/svg" d="M393.13 244.9l.01.1-.01-.1zm-276-109.4l.01.1c-.01-.06-.01-.08-.01-.1z"/><path xmlns="http://www.w3.org/2000/svg" d="M258.65 47.78s-1.83 1.25-3.23 1.32c-1.4.07-1.47-.07-1.47-1.03s-.15-1.54-.37-2.27-1.17-1.83-1.17-1.83-.8 1.54-2.64 1.98-3.6-.3-6.53-1.54c-2.94-1.25-5.72-1.47-8.15-.8-2.42.66-3.3 1.4-4.26 2.13s-2.35 2.95-2.35 2.95-2.83-.33-5.87 1.08c-3.34 1.56-4.77 5.87-5.14 9.03s.6 6.68 1.17 8.5 1.65 4.13 1.65 4.13.18-.22.5-.5l.12.6c-1 1.04-1.6 2.48-1.6 4.1 0 3.15 2.37 5.7 5.3 5.7.37 0 .72-.05 1.07-.13l-6.87 22.43-2.2 5.7s3.2 4.1 10.8 5.7c5.2 1.1 8.7 1.2 11 1 1.9-.2 4.2-.6 3-4.1-1.7-5.2-1.1-8.5-1.1-8.5l2.4-13.1c1.63.3 3.14.35 4.3-.01 3.2-1 5.9-4.4 6.9-10.1.5-3.3.8-9.2.8-13.4 0-1.1-.1-3.4-.3-5.4-.07-.52-.16-1.02-.26-1.5a11.2 11.2 0 0 0 3.3-2.34c4.94-5.07 1.2-9.77 1.2-9.77zM228 79.98c.01.03.02.06.02.1l-.08-.05c.02-.01.04-.02.06-.04z" fill="#fff"/><path xmlns="http://www.w3.org/2000/svg" d="M251.84 60.06l.33-.04c-.01-.03-.1-.01-.33.04zm-29.67 9.24l.08-.04c-.06.02-.07.04-.08.04zm38.87-18.16v.02l.03.1-.03-.12z"/><circle xmlns="http://www.w3.org/2000/svg" cx="242.07" cy="71.92" r="1.4"/><path xmlns="http://www.w3.org/2000/svg" d="M224.93 72.6c-1.6 0-2.9 1.35-2.9 3s1.3 3 2.9 3 2.9-1.35 2.9-3-1.3-3-2.9-3zm0 5c-1.05 0-1.9-.9-1.9-2s.85-2 1.9-2 1.9.9 1.9 2-.85 2-1.9 2zm18.47-13.47c-3.6-.3-5.2 2.1-5.3 2.2-.2.3-.18.75.15 1 .5.38.92.16 1.15-.1.12-.13 1.2-1.8 3.9-1.6.4 0 .8-.3.8-.7s-.3-.8-.7-.8zm7.14.57c.15-.02 1.24-.35 2.1.14.14.08.3.16.4.16.2 0 .5-.1.6-.3a.78.78 0 0 0-.2-1c-1.4-1-3.13-.44-3.28-.4a.73.73 0 0 0-.52.9c.1.4.5.54.9.5z"/><circle xmlns="http://www.w3.org/2000/svg" cx="252.07" cy="71.12" r="1.4"/><path xmlns="http://www.w3.org/2000/svg" d="M244.3 82.84c-3.6.17-4.65-2.7-4.7-2.85-.18-.4-.56-.54-.95-.4s-.55.56-.4.95c.55 1.45 2.42 3.98 6.22 3.8.4-.04.67-.37.62-.87a.75.75 0 0 0-.77-.62zm16.75-31.68l-.57-2.03-.22-.55-.18-.37-.23-.4c-.32-.52-.68-.98-1-1.3l-.47.35-.78.37-.46.3-.27.16a1.93 1.93 0 0 1-.56.21l.01-.04c-.48.3-1.07.28-1.2.32l.01-.03c-.05 0-.1.01-.15 0l.05-.03c-.06.02-.1-.02-.12-.07-.01-.03-.01-.04-.02-.1l-.02-.38c-.04-.63-.17-1.27-.3-1.8l-.1.12c-.04-.18-.07-.36-.17-.6l-.13-.3c-.04-.1-.12-.22-.18-.33a8.35 8.35 0 0 0-.82-1.12l-.52-.03c-.14-.01-.26-.05-.34.02-.18.1-.43.18-.83.28-.22.33-.58.66-.68.7-.16.12-.35.22-.56.3v-.04c-.8.6-1.73.55-2.55.32l-2.95-.96c.3.08-.1-.1-.06-.13-1.06-.42-2.35-.9-2.44-.65-.85-.28-.68-.28-.76-.42-.02.1-.8-.06-1.48-.17l.33.02a11.3 11.3 0 0 0-2-.2 4.79 4.79 0 0 1 .38.23c-1.05-.1-.26-.3-1.3-.23l.02.17c-1.46.03-2.4.01-3.8.34-1.22.38-2.46 1.15-3.42 1.98-.6.52-.96 1.03-1.35 1.56l-.55.8-.13.2-.04.08c-.03.04-.05.1-.08.14h-.2l-.66.02-1.3.15a14.34 14.34 0 0 0-2.52.65c-.8.3-1.6.65-2.33 1.18-.7.52-1.3 1.13-1.83 1.77l-.25.13c-.26-.02-.6 1.5-.8 1.6l-.2.65c-.1.15-.27.5-.2.18-.23.56-.2.6-.3 1l-.3.58c-.74 2.24-.7 4.37-.43 6.8.05 1.16.33 2.68.8 4.24.23.78.53 1.6.85 2.34l.5 1.13.8 1.72c.08 0 .13.01.2.02a6.42 6.42 0 0 0-1.07 3.57c0 3.42 2.6 6.2 5.8 6.2.12 0 .24-.02.36-.03l-6.63 21.65-2.3 5.96.17.22c.14.17 3.4 4.26 11.1 5.88 3.44.73 6.48 1.1 9.08 1.1a22.56 22.56 0 0 0 2.07-.09c1.28-.13 2.7-.37 3.4-1.45.5-.8.52-1.88.03-3.3-1.63-5-1.1-8.22-1.08-8.25l2.32-12.6c.68.1 1.35.18 1.96.18.76 0 1.46-.1 2.08-.28 3.63-1.14 6.27-4.96 7.25-10.5.1-.64.18-1.36.26-2.14 1.83-.73 3.13-3.16 3.13-6.12 0-2.67-1.06-4.9-2.6-5.86-.03-1.26-.13-3.14-.3-4.8-.02-.17-.06-.33-.1-.5 1.08-.5 2.23-1.22 3.5-2.52.85-.9 1.65-1.98 2.17-3.23a7.87 7.87 0 0 0 .55-3.9zm-18.22 15.72c-2.38 0-4.45 2.33-4.9 5.35l-3.22-.56c.1-.15.2-.33.17-.34.86-1.33 1.18-2.73 1.42-4.14 0 0 .06-.32.1-.86s.07-1.3-.03-2.17c-.2-1.83-1.2-3.7-2.13-4.98-.25-.34-.34-.46-.42-.7-.03-.1-.05-.2-.07-.27a1.12 1.12 0 0 0 .22-.03l.02.08c.02.02.05.03.07.04l.13.05a20.69 20.69 0 0 1 .76.35l1.04.52c3.87 1.95 6.4 2.96 11.87 2.92 2.42-.01 3.98-.3 5.5-.76l.5-.18c.01.08.03.15.04.22a73.09 73.09 0 0 1 .28 4.29c-.22-.05-.44-.08-.67-.08-2.2 0-3.95 2.33-4.24 5.44a2.4 2.4 0 0 0-.76-.09 1.91 1.91 0 0 0-1 .31c-.7-2.54-2.56-4.4-4.7-4.4zm4 6.6c0 3.1-1.8 5.6-4 5.6s-4-2.5-4-5.6 1.8-5.6 4-5.6 4 2.5 4 5.6zm-7 29.82c-.03.14-.6 3.5 1.12 8.75.38 1.1.4 1.93.07 2.45-.45.7-1.6.88-2.64 1-2.9.25-6.55-.08-10.85-1-6.34-1.33-9.56-4.47-10.33-5.3l2.1-5.45 6.78-22.16c.58-.16 1.13-.4 1.63-.75.08.3.16.6.22.88.53 2.22 2.42 4.1 5.96 5.93 2.5 1.3 5.52 2.5 8.25 3.06l-2.3 12.6zm13.6-23.2c-.9 5.15-3.3 8.7-6.56 9.7-3 .94-8.62-1.07-12.52-3.07-3.2-1.65-5-3.38-5.44-5.27a24.44 24.44 0 0 0-.35-1.35l-.25-1.25c-.88 1.16-2.2 1.92-3.7 1.92-2.65 0-4.8-2.33-4.8-5.2s2.15-5.2 4.8-5.2c1.2 0 2.28.48 3.12 1.27a3.37 3.37 0 0 1 .29.35l.23.36c.07.12.28.38.46.5.4.3.8.44 1.14.52l.93.2c.92.08 1.54-.14 2.2-.45a5.42 5.42 0 0 0 .9-.6l3.95.67c0 .08-.01.17-.01.25 0 3.6 2.2 6.6 5 6.6 2.7 0 5-3 5-6.6a8.76 8.76 0 0 0-.07-1.03c.05-.05.1-.1.17-.14-.01.1.01.23.07.35.5 1.3 1.4 3.8 1.3 4.7s-.85 1-1.2 1.1c-.45.12-.75.45-.65.9.12.58.65.63.95.6.8-.1 2.2-.9 2.3-2.4a4.77 4.77 0 0 0-.04-.82c.76 1 1.76 1.62 2.88 1.62.04 0 .08-.01.12-.01l-.22 1.75zm.32-2.77c-.07.01-.15.02-.22.02-1.78 0-3.3-2.45-3.3-5.35s1.5-5.35 3.3-5.35a2.01 2.01 0 0 1 .69.13c0 3-.16 7.2-.47 10.55zm1.47-9.9c.95.95 1.6 2.66 1.6 4.56 0 2.18-.85 4.1-2.02 4.93.26-3.05.4-6.68.43-9.5z"/><g xmlns="http://www.w3.org/2000/svg" fill="#fff"><path d="M240.35 427l-1.4-28.1h28.4l2.6 35.3zm-71.98.04l3.13-21.7 25.8 2.87-3 22.5z"/><path d="M173.6 393.24c1.4.3 1.76.54 3.25.75l2.15.36c.35-.06.9.17 1.3.14l.14.1c.14-.01.3-.01.43.06l-.01.02c.2-.02.43.06.53.05l-.01.02.24.04-.05.02a4.11 4.11 0 0 1 1.02.16l-.01-.1c.65.22.93.1 1.52.32h-.01c.8-.08 1.18.38 2 .32-.1.01.03.05.02.07.37.04.76.1.8-.06.26.05.2.1.23.16.01-.07.25-.06.46-.03l-.1.01.6.1-.1-.16c.3.1.05.18.36.2l.02-.12c.43.1.65.33 1.06.5 1.74.38 3.68.44 5.27.95l.06.1c.01.13.48-.1.53.03l.2-.02c.05.03.16.08.06.1.17.04.18.02.32 0l.17.1c.68.2 1.3.15 2.02.32.84.32 2.52.5 3.48.58 1.37.06 2.82.86 4.23.9.04.03.16.01.17-.01l1.25.25s6.05 1.18 1.64-.73l.04-.02c-.67-.2-1.1-.3-1.6-.24-.04-.18-.56-.12-.7-.2v-.01c-.44.05-.84-.27-1.26-.23.02-.01.04-.06.13-.04-.3-.03-.7-.07-.7-.17-.7-.1-1.67-.33-2.15-.26l.04-.02c-.28.06-.33-.05-.63-.05-.01-.02-.03-.03-.03-.03-.3.05-.82-.14-1.05-.13v-.07l-.56-.1.2.05c-.1.17-.4-.2-.82-.15-.37-.1-.83.23-1.2.07-.2.05.2-.1-.1-.1.01-.1.14-.03.08-.12-.28-.01-.43-.18-.78-.18v-.08c-.47.05-.8-.25-1.13-.18-.46-.02-.26-.27-.76-.22l-.17-.13c-.2-.05-.17.1-.38 0 .03-.06-.27-.1-.13-.14-.5-.2-1.06-.05-1.7-.35-.17.1-.5-.04-.62.03-.01-.06-.67-.14-.27-.18.03 0 .1.01.08.03l.06-.06c-.36-.2-.7-.05-1.08-.15.1.04.26.07.15.1l-.35-.08.08-.05-.52-.13.06.1c-.25-.1-.3-.23-.62-.18-.14.03.22.15-.05.12l-1.26-.4c.02.1-.1.07-.22.06v-.08c-.48.02-.14-.2-.6-.2l.05-.04-.15.13c-.44.07-.2-.2-.7-.08.18.02.06.18-.16.1l.07-.06c-.13-.01-.17.01-.25-.02.08-.02.06-.1-.13-.12l.14-.07-.37.07c-.25-.13-.7-.1-.78-.23 0 0-.56-.16-.7-.07.13-.05-.18-.13-.08-.2-.16.05-.6.03-.77-.08h.03c-.63-.2-1.13-.1-1.7-.3.01.1-.3-.01-.23.1-.62-.01-1.06-.43-1.34-.13-.28-.03-.3-.14-.45-.18l.07-.01-1.05-.17c-.2 0-.26.15-.6.05.12-.04-.02-.06-.15-.08.08.01.1-.01-.05-.1-.03.01-.07.02-.1.02-.22-.04-.18-.01-.1.02-.01.01 0 .02.03.05-.2-.12-.62-.1-.62-.22-.64-.1-1.12-.07-1.66-.13-.05-.07.08-.1.24-.08l-.38-.05c.02-.08.23 0 .34 0-.43-.2-.95-.05-1.46-.26l-.12.04-.03-.02c0 .03-.13.06-.2.05-.06-.08.04-.16-.23-.2-.2-.1-.6-.08-.87-.1.14.04.1.07.02.08-.13-.02-.2-.1-.3-.1v-.1c.03.1-.36.03-.4.06-.06-.08.2-.02.26-.07l-.8-.13c-.3.02.03.1-.1.15-.25-.03-.5-.01-.78-.12l.07.1c-.48-.02-.75-.08-1.05-.23-3.58.02-.9.78-.9.78 1.3.4 2.06.3 3.7.54zm64.23 8.1c1.55-.08 1.98.05 3.58-.15l2.33-.23c.35-.15.98-.08 1.4-.22l.17.06c.14-.05.3-.1.46-.06l-.01.02c.2-.07.46-.06.56-.1l-.01.02.26-.03-.04.03c.37-.1.76-.12 1.1-.12l-.04-.08c.74.04 1-.16 1.67-.1h-.01c.82-.3 1.34.05 2.18-.24-.1.04.05.04.04.06.4-.06.82-.1.8-.27.3-.02.24.03.28.1-.01-.07.24-.13.47-.15l-.1.04.65-.08-.14-.13c.35.01.1.17.43.1l-.01-.12c.48-.01.77.14 1.24.2 1.9-.1 3.94-.56 5.74-.5l.1.08c.04.13.48-.23.55-.12l.2-.08c.06.02.18.03.08.07.2-.01.2-.03.33-.08l.2.06c.76 0 1.4-.2 2.2-.24.97.1 2.75-.2 3.78-.38 1.44-.3 3.17.07 4.64-.27.05.01.17-.04.17-.05l1.36-.1s6.6-.48 1.5-1.14l.03-.03c-.75-.01-1.22.01-1.72.2-.1-.17-.6.03-.8-.01l.02-.02c-.44.17-.95-.04-1.37.12.02-.02.02-.06.12-.07-.32.05-.75.12-.78.02-.76.1-1.83.13-2.3.32l.03-.03c-.27.13-.36.04-.67.12l-.04-.02c-.3.13-.88.1-1.13.15l-.02-.07-.6.06h.23c-.06.2-.47-.08-.9.08-.4.01-.8.45-1.23.4-.2.1.17-.15-.13-.06-.02-.1.14-.07.05-.14-.3.07-.5-.06-.86.04l-.02-.07c-.47.17-.9-.03-1.22.13-.5.1-.35-.2-.85-.01l-.2-.08c-.22 0-.15.14-.4.1.01-.06-.3-.03-.17-.1-.56-.05-1.1.23-1.85.12-.15.14-.52.1-.63.2-.02-.05-.74.05-.33-.1.03-.01.1-.02.1.01l.04-.08c-.43-.1-.75.14-1.16.15.12.01.3 0 .18.05l-.38.02.07-.07h-.57l.08.07c-.28-.02-.4-.14-.7-.01-.14.07.27.08-.02.13l-1.42-.04c.05.08-.08.1-.2.12v-.07c-.5.14-.2-.15-.7-.03l.04-.06-.12.17c-.44.18-.26-.14-.74.1.2-.03.1.16-.14.14l.06-.08c-.13.03-.18.06-.27.05.08-.05.03-.1-.16-.08l.13-.1-.37.16c-.3-.05-.75.08-.88-.01 0 0-.63 0-.76.12.12-.08-.23-.08-.13-.17-.16.1-.63.2-.83.12h.04c-.7-.03-1.2.2-1.84.16.04.08-.3.06-.2.17-.65.16-1.2-.13-1.42.23-.3.04-.36-.05-.52-.06l.07-.02-1.14.1c-.2.05-.22.2-.6.2.12-.07-.04-.05-.17-.04.1-.02.1-.04-.07-.07-.02.02-.06.04-.1.05 0 0-.01-.01-.01-.02-.23.04-.2.06-.08.06 0 .01.01.02.04.04-.25-.06-.67.06-.7-.05-.7.08-1.2.23-1.76.32-.07-.05.06-.1.23-.15l-.4.05c0-.08.23-.06.36-.1-.5-.1-1 .2-1.6.14l-.1.07-.04-.01c0 .03-.12.1-.2.1-.1-.06-.01-.16-.3-.13-.23-.05-.64.08-.93.15.16 0 .1.04.05.07-.14.01-.23-.05-.34-.01l-.02-.1c.06.08-.36.13-.4.17-.1-.06.22-.08.25-.13l-.86.08c-.3.1.06.08-.08.18-.27.04-.52.13-.84.1l.1.08c-.5.1-.8.12-1.15.06-3.7.98-.72 1-.72 1 1.48.1 2.23-.2 4-.4z"/></g><path xmlns="http://www.w3.org/2000/svg" d="M305.82 440.73c.1.4.05-.2.1-.16-.24-1.5-.72-3.1-1-3.04-.32-1.07-.2-.9-.14-1.07-.06.02-.18-.2-.34-.5-.18-.33-.32-.7-.68-1.2l.32.4c-.6-.96-1.3-1.4-1.96-1.9l.25.5c-1.02-.84-.1-.45-1.17-1.1l-.1.17-3.7-2.7c-6.3-3.4-13.5-5.95-19.47-8.82l-.2-.25c-.04-.25-1.8-.4-1.96-.68l-.75-.2c-.2-.12-.6-.33-.22-.23-.66-.28-.68-.25-1.18-.38l-.66-.4-.95-.4-.47-.2c-.2-.07-.44-.16-.66-.2-.48-.1-.96-.07-1.42.04-.08-1.3-.32-2.65-.3-4.34-.15-.42-.15-1.42-.27-1.73.05-.06-.14-2 .06-.88.02.1.03.26.01.25l.08.13c.02-.37 0-.7-.04-1.05l6.44-.63c.52-.03 1.2-.2 1.7-.5.52-.3.96-.7 1.3-1.17s.55-1 .66-1.54a4.58 4.58 0 0 0 .08-.83l-.02-.64-.17-4.75c-.72-16.43-.33-35.57-1.1-52.4a13.41 13.41 0 0 0-.04-1.19c-.02-.2-.03-.4-.04-.54s-.02-.23-.03-.22l-.48-15.4s-1.7-51.36-2.2-36.5l-.1-2.55-.4-11.1.8 10c.3 2.83.44 2.6.52 1.07.07-1.54.06-4.42.03-6.9l-.1-4.6c-.2-8.4-.56-14.74-1.04-21.48l-1.9-23.82-1.54-19.9-.38-4.28-.55-5.5-.06-.57c.01-.07-.05-.05-.1-.05h-3.22l-.05.3c-.23-.2-.82-.08-1.22-.12h-3.82l-8.57.1c-.28-.01-.8 0-1.23.01l-.57.03c-.15.01-.24.02-.23.02H235.3s-53.44.02-38.02 1h-2.64c-.43 1.93-1.04 5.87-1.82 11.3l1.15-10.27c.42-2.96.24-2.76-.24-1.23-.48 1.6-1.04 4.54-1.48 7.1l-.77 4.72c-1.38 8.62-2.24 15.16-3.16 22.12l-1.45 11.06c-.52 4.03-.97 8.46-1.52 13.63l-4.66 41.68c-.67 4.4-1.52 9-2.34 13.55l-2.48 13.42c-.58 4.15-2.2 11.36-2.96 16.25l-.5 1.86c-.27 1.7-.6 3.66-1 5.33l-.01-.1c-.4 2.52-1 5.33-1.2 6.58v-.1l-.58 3.04.05-.53c-.77 4.38-1.65 8.87-2.48 12.82l.2-.3c-1.84 8.43-2.16 11.6-3.87 19.2l-.01-.1-.58 3.46c-.1.57-.22 1-.28 1.76-.04.7.12 1.38.4 1.98.6 1.2 1.7 2.03 2.94 2.33l2.9.57 1.5.3c-.1.9-.18 1.8-.4 2.78l.01.34-.02.1c.03 0 .03.36 0 .6-.1.2-.16-.04-.27.74-.16.6-.23 1.76-.32 2.57.08-.43.1-.3.1-.1-.06.4-.16.6-.18.9h-.1c.1-.14-.06 1.03-.04 1.18-.1.2.03-.6 0-.72l-.35 2.35c-.06.84.1-.14.13.27-.1.74-.14 1.47-.33 2.3l.12-.25c-.15 1.4-.28 2.22-.5 3.14l-.1 1.2a2.22 2.22 0 0 0-1.13.24c-.34.18-.64.45-.85.78-.2.3-.32.82-.37.97-.25.9-.42 1.8-.53 2.68-.06.18-.08.66-.05.66-.3 1.7-.45 3.42-.52 5.14 0 0-.07 1.56.03 3.6.05 1.02.14 2.16.28 3.27l.23 1.64c.05.27.1.53.13.78.05.26.07.48.17.8.34 1.18 1.32 1.88 2 1.98.34.07.6.04.72-.01s.14-.1.06-.16c-.1-.08-.44-.16-.83-.45a1.98 1.98 0 0 0 .82.2l3.67-.01c-9.1.96.1 1.28.1 1.28 5.5.3 8.33-.12 14.87-.25 5.75.05 7.27.32 13.23.2 2.84.01 5.87-.06 8.65-.1 1.32-.22 3.65-.01 5.2-.2l.6.12c.54-.06 1.17-.1 1.7-.04l-.03.03c.8-.1 1.7-.04 2.1-.1l-.03.04.98-.02-.17.05c1.4-.1 2.84-.1 4.1-.07l-.1-.14c2.72.15 3.7-.15 6.17.03l-.03.04a14.54 14.54 0 0 1 1.12-.1c.52-.03 1.02-.18 1.44-.45.84-.53 1.3-1.4 1.4-2.3.08-1.4.07-2.63-.33-4.26.1.4.05-.2.1-.16-.24-1.5-.72-3.1-1-3.04-.32-1.07-.2-.9-.14-1.07-.06.02-.18-.2-.34-.5-.18-.33-.32-.7-.68-1.2l.32.4c-.6-.96-1.3-1.4-1.96-1.9.1.16.17.33.25.5-1.02-.84-.1-.45-1.17-1.1l-.1.17c-1.48-1-2.25-1.76-3.7-2.7-6.3-3.4-13.5-5.95-19.47-8.82l-.2-.25c-.04-.25-1.8-.4-1.96-.68l-.75-.2c-.2-.12-.6-.33-.22-.23-.66-.28-.68-.25-1.18-.38l-.66-.4-.95-.4-.47-.2c-.2-.07-.44-.16-.66-.2-.54-.1-1.08-.05-1.6.1.01-.08.02-.17.05-.3.06.05.16-.84.17-.44.3-1.5.25-3.1.66-5.1-.02-.15-.01-.37.01-.6l3.14.53-1.2-.17 3.3.56c.18.02.36.06.55.07 1.5.12 3.04-.56 3.98-1.73-.43.4-.93.72-1.46.92 1-.56 1.38-1.1 1.63-1.4l.4-.55c.1-.1.16-.22.3-.57.12-.32.28-.82.56-1.75h-.2c1.72-5.32 2.98-8.36 4.75-13.47l13.53-43.53 2.9 28.6-.05.9c-.17.4.9 5.48.78 6.27l.34 2.32c.03.66.13 2.04-.04.9.22 2.15.26 2.2.48 3.74l.1 2.32c.4 4.25.84 8.17 1.3 12.15l.17 1.5c.03.22.07.6.16.9.08.32.2.62.36.9.62 1.15 1.8 2 3.16 2.17.33.04.7.03 1-.01l2.1-.2c-.01.23-.03.4 0 .62l-.1.04c.08-.16.15 1 .2 1.14-.06.22-.1-.6-.15-.7l.13 2.32c.1.82.08-.15.18.24.05.73.16 1.44.14 2.28l.07-.27c.13 1.37.16 2.2.13 3.1l.37 2.86c-.15.04-.3.08-.44.15-.34.18-.64.45-.85.78-.2.3-.32.82-.37.97-.25.9-.42 1.8-.53 2.68-.06.18-.08.66-.05.66-.3 1.7-.45 3.42-.52 5.14 0 0-.07 1.56.03 3.6.05 1.02.14 2.16.28 3.27l.23 1.64c.05.27.1.53.13.78.05.26.07.48.17.8.34 1.18 1.32 1.88 2 1.98.34.07.6.04.72-.01s.14-.1.06-.16c-.1-.08-.44-.16-.83-.45a1.98 1.98 0 0 0 .82.2l3.67-.01c-9.1.96.1 1.28.1 1.28 5.5.3 8.33-.12 14.87-.25 5.75.05 7.27.32 13.23.2 2.84.01 5.87-.06 8.65-.1 1.32-.22 3.65-.01 5.2-.2l.6.12c.54-.06 1.17-.1 1.7-.04l-.03.03c.8-.1 1.7-.04 2.1-.1l-.03.04.98-.02-.17.05c1.4-.1 2.84-.1 4.1-.07l-.1-.14c2.72.15 3.7-.15 6.17.03l-.03.04a14.54 14.54 0 0 1 1.12-.1c.52-.03 1.02-.18 1.44-.45.84-.53 1.3-1.4 1.4-2.3.1-1.43.1-2.66-.3-4.3zm-110.27-23.87l-.1.2c-.14.08.02 1.37-.12 1.54l-.01.36a3.39 3.39 0 0 0-.42.33 2.69 2.69 0 0 0-.44.49c-.2.25-.4.5-.6.75-.43.5-.9.98-1.42 1.44-1.33 1.06-3.3 2.48-5.53 3.5s-4.7 1.6-6.54 1.73c-3.6.4-7.82-.1-11.05-2-.08-.05-.17-.08-.25-.1a62.26 62.26 0 0 0 .62-4.01c.16.1.4.13.4.13.73.2 1.1-.06 1.97-.12.76.04.96.2 1.75.14.38.01.78-.02 1.14-.04.17-.13.48 0 .7-.1l.08.07c.07-.04.15-.06.23-.02v.02c.1-.05.23-.02.28-.05v.02l.13-.01-.02.03a1.27 1.27 0 0 1 .54-.04l-.01-.1c.36.1.5-.08.82.03v.02c.4-.23.65.16 1.07-.06-.05.03.02.04.02.07.2-.02.4-.04.4-.2.14 0 .12.05.13.12 0-.07.12-.1.23-.1l-.05.03.32-.03-.06-.14c.17.04.04.17.2.14v-.12c.23.02.37.2.6.3.94.05 1.94-.25 2.8-.04l.04.1c.02.13.24-.2.27-.07l.1-.06c.03.02.1.05.04.08.1.01.1-.02.16-.05l.1.08c.37.06.68-.1 1.07-.06.47.16 1.35.01 1.85-.07.7-.2 1.54.32 2.27.1.02.02.1-.02.08-.04l.67.02s3.24.05.78-1.02l.02-.03c-.37-.07-.6-.08-.85.06-.04-.17-.3-.02-.4-.07l.01-.01c-.22.13-.46-.1-.67.01.01-.01.01-.06.06-.06-.16.02-.37.06-.38-.04-.37.03-.9-.02-1.14.14l.02-.03c-.14.1-.18.02-.33.07-.01-.01-.02-.02-.02-.03-.15.1-.43.02-.55.06l-.01-.07-.3.02.1.01c-.04.18-.22-.12-.44 0-.2-.02-.4.38-.62.3-.1.1.1-.14-.06-.07 0-.1.07-.06.03-.14-.15.05-.24-.1-.42-.03l-.01-.07c-.24.14-.44-.1-.6.03-.24.06-.16-.22-.42-.08l-.1-.1c-.1-.02-.08.12-.2.07.01-.06-.15-.05-.08-.1-.27-.1-.55.14-.9-.03-.08.12-.26.05-.32.14-.01-.05-.36-.01-.16-.13.02-.01.05-.01.05.01l.02-.07c-.2-.14-.37.08-.57.05.06.02.14.02.1.07l-.2-.01.04-.06-.28-.04.04.08c-.14-.04-.18-.17-.34-.06-.07.06.13.1-.01.13-.18-.05-.46-.13-.7-.15.02.1-.04.08-.1.1l-.01-.07c-.25.1-.1-.16-.34-.08l-.04.1c-.22.15-.12-.16-.37.05.1-.01.05.16-.07.13l.03-.07c-.07.02-.1.05-.13.03.04-.04.02-.1-.08-.1l.07-.1-.18.13c-.14-.08-.37.02-.43-.08 0 0-.3-.05-.38.06.06-.07-.1-.1-.06-.18-.08.08-.3.14-.4.06l.02-.01c-.35-.1-.6.12-.9.01.01.1-.15.04-.1.15-.32.1-.6-.23-.7.12-.15.02-.17-.08-.25-.1l.03-.02c-.27.03-.35.03-.56.02-.1.03-.12.2-.3.15.06-.06-.02-.05-.08-.05.04-.01.06-.03-.03-.08-.01.02-.03.03-.05.04-.1 0-.1.02-.04.03 0 .01 0 .02.02.04-.12-.08-.33.01-.34-.1-.34.03-.6.14-.87.18-.03-.06.03-.1.12-.13l-.2.02c0-.08.12-.05.18-.06-.24-.13-.5.13-.78.01l-.06.06-.02-.01c0 .03-.06.08-.1.1-.04-.07 0-.16-.14-.16-.1-.07-.3.03-.46.07.08.01.05.05.02.08-.07 0-.1-.07-.16-.04l-.01-.1c.03.1-.18.1-.2.13-.04-.07.1-.06.13-.1-.28.01-.14 0-.42.01-.15.07.03.1-.04.17-.13.02-.26.08-.4.03l.05.08c-.25.07-.4.06-.56-.03-.34.13-.57.24-.72.34l.7-5.62 1.27-7.3c3 .58 6.18 1.15 10 1.7-1.25-.18.52.17.4.2 4.6.78 9.53 1.64 9.65 1.37 3.35.6 2.7.58 3.13.76 0-.05.53 0 1.34.12-.2 1.75-.43 3.44-.7 5.04zm45.43 7.35a51.53 51.53 0 0 0-.08-2.93c.5.03.9-.12 1.6-.18.76.04.96.2 1.75.14.38.01.78-.02 1.14-.04.17-.13.48 0 .7-.1l.08.07c.07-.04.15-.06.23-.02v.02c.1-.05.23-.02.28-.05v.02l.13-.01-.02.03a1.27 1.27 0 0 1 .54-.04l-.01-.1c.36.1.5-.08.82.03v.02c.4-.23.65.16 1.07-.06-.05.03.02.04.02.07.2-.02.4-.04.4-.2.14 0 .12.05.13.12 0-.07.12-.1.23-.1l-.05.03.32-.03-.06-.14c.17.04.04.17.2.14v-.12c.23.02.37.2.6.3.94.05 1.94-.25 2.8-.04l.04.1c.02.13.24-.2.27-.07l.1-.06c.03.02.1.05.04.08.1.01.1-.02.16-.05l.1.08c.37.06.68-.1 1.07-.06.47.16 1.35.01 1.85-.07.7-.2 1.54.32 2.27.1.02.02.1-.02.08-.04l.67.02s3.24.05.78-1.02l.02-.03c-.37-.07-.6-.08-.85.06-.04-.17-.3-.02-.4-.07v-.01c-.22.13-.46-.1-.67.01.01-.01.01-.06.06-.06-.16.02-.37.06-.38-.04-.37.03-.9-.02-1.14.14l.02-.03c-.14.1-.18.02-.33.07-.01-.01-.02-.02-.02-.03-.15.1-.43.02-.55.06V420l-.3.02.1.01c-.04.18-.22-.12-.44 0-.2-.02-.4.38-.62.3-.1.1.1-.14-.06-.07 0-.1.07-.06.03-.14-.15.05-.24-.1-.42-.03l-.01-.07c-.24.14-.44-.1-.6.03-.24.06-.16-.22-.42-.08l-.1-.1c-.1-.02-.08.12-.2.07.01-.06-.15-.05-.08-.1-.27-.1-.55.14-.9-.03-.08.12-.26.05-.32.14-.01-.05-.36-.01-.16-.13.02-.01.05-.01.05.01l.02-.07c-.2-.14-.37.08-.57.05.06.02.14.02.1.07l-.2-.01.04-.06-.28-.04.04.08c-.14-.04-.18-.17-.34-.06-.07.06.13.1-.01.13-.18-.05-.46-.13-.7-.15.02.1-.04.08-.1.1l-.01-.07c-.25.1-.1-.16-.34-.08l-.04.1c-.22.15-.12-.16-.37.05.1-.01.05.16-.07.13l.03-.07c-.07.02-.1.05-.13.03.04-.04.02-.1-.08-.1l.07-.1-.18.13c-.14-.08-.37.02-.43-.08 0 0-.3-.05-.38.06.06-.07-.1-.1-.06-.18-.08.08-.3.14-.4.06l.02-.01c-.35-.1-.6.12-.9.01.01.1-.15.04-.1.15-.32.1-.6-.23-.7.12-.15.02-.17-.08-.25-.1l.03-.02c-.27.03-.35.03-.56.02-.1.03-.12.2-.3.15.06-.06-.02-.05-.08-.05.04-.01.06-.03-.03-.08-.01.02-.03.03-.05.04-.1 0-.1.02-.04.03 0 .01 0 .02.02.04-.12-.08-.33.01-.34-.1-.34.03-.6.14-.87.18-.03-.06.03-.1.12-.13l-.2.02c0-.08.12-.05.18-.06-.24-.13-.5.13-.78.01l-.06.06-.02-.01c0 .03-.06.08-.1.1-.04-.07 0-.16-.14-.16-.1-.07-.3.03-.46.07.08.01.05.05.02.08-.07 0-.1-.07-.16-.04l-.01-.1c.03.1-.18.1-.2.13-.04-.07.1-.06.13-.1-.28.01-.14 0-.42.01-.15.07.03.1-.04.17-.13.02-.26.08-.4.03l.05.08c-.25.07-.4.06-.56-.03-.03.01-.04.02-.07.03l-.53-6.97v-.1l2.56-.22c5.38-.34 13.12-1.02 20.96-1.76l3.88-.38c.23 2.6.45 5.18.52 7.58l-.07.22c-.03.03-.02.14 0 .28-.16.1-.3.22-.45.35a2.69 2.69 0 0 0-.44.49 20.08 20.08 0 0 1-.61.75c-.43.5-.9.98-1.42 1.44-1.33 1.06-3.3 2.48-5.53 3.5s-4.7 1.6-6.54 1.73c-3.6.4-7.82-.1-11.05-2a2.4 2.4 0 0 0-1.13-.34c0-.37-.01-.65-.01-.65z"/><path xmlns="http://www.w3.org/2000/svg" d="M179.74 419.7h0l.02-.05zm70.48 0h0l.02-.05z"/><g xmlns="http://www.w3.org/2000/svg" fill="#fff"><path d="M189.28 322.37l.02-.14-1.46 7.15c.1-.1-.2 1.2-.03.9l-.6 2.82 1.16.52.82-4.05-.1.1 1.36-6.45.01.04.5-2.73-1.2-.3-.46 2.15zm3.14-16.23h0l-.02-.18zm-6.17 31.66l.04-.28-.9 4.4c-.14.8-.01.97-.35 2.4.04-.48-.08.1-.2.65.06-.35.06-.46-.13.24 0 .1-.02.26-.04.4-.01 0-.02.03-.02.02-.17.9-.12.75-.02.34.01.02.02-.01.07-.13-.28.9-.55 2.6-.68 2.7 0 .02-.01.05-.01.07l1.17.48.9-4.37c.17-1.4.8-3.8 1.05-5.46l.2-.62.3-1.5-1-.56-.36 1.22zm-6.15 29.12c.15-.6.14-.4.1-.14-.12.55-.26.85-.32 1.28l-.1.03c.13-.2-.22 1.46-.23 1.67-.14.3.13-.87.1-1.02l-.7 3.3c-.2 1.2.13-.2.1.4l-.5 2.43.97.17 1.5-7.54.25-1.1-1.05-.25-.14.76zm14.8-75.02c.1-.47.2-1.1.17-.68l-.24 1.5-.01-.32-.38 2.22.12-.3c-.2 1.08-.4 1.45-.47 2.7-.03.57.26-1.02.1.14l-.75 3.8 1.16.36.18-.8c.64-3.77 1.18-7.7 1.72-11.55l-1.2-.5c-.16 1.16-.2 2.23-.4 3.44zm-12.2 63.53c-.1.24-.04-.3.08-.95l-.32 1.6c-.08-.03.15-.93.24-1.42-.54 1.87-.72 3.94-1.32 6.14l-.04.47-.04.13c.03 0-.03.5-.1.84-.13.28-.15.01-.34.82l1.13.3 2.18-9.63.28-1.27-1.1-.46-.65 3.43zm10.98-50.23l.1-.46-.93-.28c-.13.6-.2.2-.4 1.7l.04.36c-.18 1.78-.33.92-.5 2.9.14-.77.23-.33.02.6v-.25l-.17 1.06c.02-.32-.07-.2-.2.6v-.53l-.15 1.48-.75 3.36-.15.7 1.23.36.34-2.04c-.06.42.08-.17.1-.13.28-1.55.58-3.2.42-3.26.22-1.13.23-.9.32-1.04-.07-.01.08-1 .25-1.87l-.05.4.45-2.53-.23.47c.3-1.33.23-.3.43-1.6h-.13zm4.12-31.33l-.22.77c-.15.86.03.64-.17 1.6-.05-.07-.23 1.2-.2.63l-1.13 7.24c.01.25-.03.6-.08 1l1.04.27 1.2-7.34.13-.3c.15-.1.1-1.95.26-2.2l.07-.82c.06-.22.15-.7.12-.3.12-.75.1-.77.14-1.3l.2-.77-1.07-.2c-.1.33-.18.65-.27 1.72zm2.6-16.67c-.27 1.6-.12 3.3-.46 4.97-.04.8-.03-.72-.15.48-.1.02.03-.56-.1-.27-.13 1.17-.4 1.9-.54 3.35l-.08.05c-.1 1.13-.3 2.15-.46 3.07l1.03.22.75-5.32 1.3-8.18-1-.25-.28 1.88zm-22.9 122.57c-2.57 14.7.23 3.27.23 3.27l1.24-5.3-.9-.23-.57 2.26zm28.78-161.33l-.01-.14-.42 2.45 1.07.13c.94-6.37 2.37-16.92-.64-2.44zm-4.08 26.66v-.14c-.06 1.1-.2 1.4-.33 2.64-.02.06-.04.15-.05.14-.07 1.17-.48 3.3-.6 4.33l.92.2.44-3.3 1.23-7.84-1.1-.2-.5 4.18zm10.86-20.07h0l-.02.02z"/><path d="M226.62 208.8c-.01-.72-.2-.94-1.03.5l-.02-.03c-.17.44-.27.72-.22 1.08-.18 0-.13.37-.2.46h-.01c.04.32-.28.53-.26.83-.01-.01-.05-.04-.03-.1-.05.2-.1.47-.2.45-.15.46-.44 1.07-.42 1.4l-.02-.03c.03.2-.08.22-.1.42-.02 0-.03.01-.03.01.02.22-.23.5-.26.68l-.06-.02-.16.35.08-.12c.14.13-.23.2-.26.5-.15.22.08.65-.14.85.01.15-.06-.17-.1.03-.1-.04 0-.1-.1-.1-.06.2-.25.22-.32.45l-.07-.03c-.05.33-.38.44-.4.67-.13.3-.3.05-.37.4l-.15.05c-.1.1.04.15-.1.25-.05-.05-.15.13-.15.02-.3.2-.33.64-.74.9.04.16-.17.3-.15.4-.05-.03-.32.34-.23.07.01-.02.04-.05.05-.04l-.03-.07c-.28.1-.26.4-.45.58.07-.04.13-.12.12-.04l-.17.17v-.08l-.27.22h.1c-.15.1-.3.04-.35.25-.02.1.2-.04.07.1-.2.1-.5.3-.75.46.08.05.01.1-.04.16l-.05-.05c-.2.27-.2-.06-.4.2v-.06l.03.17c-.14.3-.2-.04-.34.32.1-.1.14.1 0 .16l-.01-.08c-.06.06-.07.1-.13.1.02-.06-.04-.1-.13-.03l.02-.12-.13.23c-.2.03-.4.26-.5.2 0 0-.35.16-.38.3.04-.1-.17-.02-.15-.12-.05.1-.3.3-.43.28l.02-.02c-.42.13-.63.44-1.04.48.05.07-.16.1-.07.2-.34.27-.78.06-.8.43-.17.08-.24-.01-.34.01l.04-.03c-.33.13-.42.18-.68.24-.12.07-.1.22-.33.25.06-.08-.03-.04-.12-.02.05-.02.06-.05-.06-.06-.01.02-.03.04-.05.06v-.01c-.14.06-.1.07-.04.06 0 .01.01.02.03.03-.17-.04-.4.12-.46.01-.43.12-.72.3-1.07.4-.05-.05.03-.1.13-.16-.08.03-.17.05-.25.07-.01-.08.14-.07.22-.1-.33-.07-.6.24-1 .18l-.07.08-.02-.01c.01.03-.07.1-.12.1-.06-.06-.02-.16-.2-.13-.15-.05-.4.08-.58.15.1 0 .07.04.03.07-.1.01-.15-.05-.22-.01l-.02-.1c.05.1-.23.12-.26.16-.06-.07.14-.07.15-.13l-.54.06c-.2.1.04.1-.04.18-.17.04-.34.1-.54.06l.07.08c-.32.1-.52.08-.74 0l-.75.26.1-.67-1.02-.07-.05.55c-.22.3-.38 2.4-.54 3.07V228c-.14 1.8-.67 3.65-.8 5.38 0-.07-.04-.1.01-.5l-.5 3.05-.15 1 1.2.16.95-6.36a3.78 3.78 0 0 0 .07-.68l.66-4.24a2.66 2.66 0 0 0 .34.07c1 .17 1.5-.1 2.66-.28 1.03-.1 1.33.04 2.37-.23a12.24 12.24 0 0 0 1.5-.4c.2-.18.64-.17.87-.37l.13.03a.45.45 0 0 1 .3-.12v.02c.12-.1.3-.12.35-.17v.02l.16-.07-.02.04c.22-.15.46-.25.68-.3l-.05-.07c.5-.1.6-.33 1.03-.42v.02c.4-.45.88-.25 1.26-.75-.05.06.05.02.06.04.22-.16.45-.32.36-.47.17-.1.16-.04.22 0-.04-.06.08-.2.2-.28l-.04.07.33-.28-.15-.06c.2-.1.15.1.3-.06l-.07-.1c.26-.18.54-.13.82-.3 1.03-.83 1.68-2.06 2.56-2.87h.1c.12.06.04-.38.16-.34l.03-.15c.04-.02.1-.07.1 0 .08-.1.06-.12.08-.2l.14-.07c.35-.37.43-.83.74-1.26.48-.46.9-1.6 1.1-2.25.22-.94 1.12-1.8 1.22-2.82.03-.03.01-.12 0-.12l.28-.86c-.03.03.28-1.03.28-1.72zm4.98 123l.12-.3c-.01-.01-.05.07-.12.3zm21.36-80.22l.01-.08-.01.08zm-16.7 68.3l-.01.1.01-.1z"/><path d="M231.53 335.92c1.28-4.2 1.76-5.28 2.96-9.67.62-2.08 1.22-4.32 1.78-6.37.16-1 .76-2.68.98-3.86l.2-.43c.08-.4.18-.88.33-1.26l.01.03c.1-.6.33-1.26.4-1.56v.03l.2-.72v.13a37.12 37.12 0 0 1 .81-3.04l-.1.05c.65-1.98.68-2.76 1.3-4.54v.03c.4-2.35 1.14-3.57 1.56-6-.05.3.08-.1.1-.1.27-1.1.57-2.26.4-2.32.22-.8.23-.63.32-.72-.07-.01.08-.7.24-1.33l-.05.3.44-1.78-.23.3c.3-.93.23-.2.43-1.1h-.12c.36-1.3.74-2 1.15-3.25 1.4-5.23 2.53-10.94 3.96-15.78l.14-.2c.15-.06.16-1.4.32-1.55l.1-.58c.06-.15.17-.48.13-.2.14-.52.12-.54.18-.93l.22-.54c.58-2.06.88-3.86 1.46-6.03.82-2.58 1.92-7.55 2.55-10.4.82-4.04 2.5-8.56 3.3-12.7.05-.13.1-.48.08-.48l.96-3.74s4.63-18.13.12-4.6v-.1c-.58 2.03-.92 3.32-1.14 4.76-.22.18-.44 1.68-.62 2.14v-.05c-.2 1.28-.76 2.55-.95 3.78 0-.05-.04-.1.03-.37-.2.88-.47 2.1-.58 2.13-.5 2.1-1.3 5-1.47 6.4v-.1c-.1.8-.23 1-.4 1.86l-.05.1c-.1.86-.6 2.44-.72 3.12l-.08.03-.4 1.66.17-.62c.12.26-.43 1.23-.62 2.46-.3 1.12-.2 2.38-.6 3.53-.06.58-.01-.53-.16.32-.1 0 .04-.4-.1-.2-.16.83-.43 1.32-.63 2.34l-.08.02c-.2 1.35-.72 2.46-.82 3.37-.28 1.37-.44.86-.66 2.3l-.24.53c-.17.6.01.46-.2 1.12-.05-.06-.26.84-.22.43-.48 1.5-.64 3.12-1.3 5.08.01.47-.32 1.45-.3 1.8-.07.04-.52 2.02-.35.86.02-.1.06-.27.08-.25l-.04-.15c-.42 1.1-.45 2.1-.76 3.22.1-.33.2-.78.2-.47l-.27 1.05v-.23l-.43 1.55.13-.2c-.23.75-.43 1-.55 1.88-.04.4.3-.7.1.1a124.15 124.15 0 0 0-1.14 3.8c.12-.1.02.25-.06.6l-.08.02c-.26 1.4-.3.46-.57 1.86l-.02-.13.06.4c-.18 1.27-.33.63-.5 2.05.13-.55.23-.2.02.45l-.02-.2c-.08.37-.1.5-.17.75.02-.23-.07-.14-.2.4v-.4l-.15 1.06c-.3.77-.53 2.06-.72 2.35 0 0-.5 1.7-.5 2.1.03-.36-.26.57-.26.28-.05.46-.34 1.78-.56 2.28l.02-.1c-.6 1.9-.8 3.33-1.37 5.03.1-.06-.2.85-.02.65-.4 1.82-1.12 3.2-.98 3.94-.2.82-.35.94-.48 1.36l.04-.2-.85 3.1c-.13.57 0 .7-.33 1.7.03-.34-.07.07-.18.45.06-.24.06-.33-.12.16a1.67 1.67 0 0 1-.04.29c-.01 0-.02.02-.02.01-.16.64-.1.53-.02.24.01.02.02 0 .07-.1-.27.63-.52 1.83-.64 1.88-.52 1.9-.8 3.3-1.22 4.9-.1.16-.05-.22.07-.7l-.3 1.13c-.07-.03.14-.66.22-1-.5 1.3-.67 2.8-1.24 4.32l-.03.34-.04.1c.03 0-.02.37-.08.6-.13.2-.15-.06-.37.7-.24.6-.48 1.75-.68 2.56.14-.43.13-.28.1-.1-.1.4-.24.6-.3.9l-.1.01c.13-.13-.2 1.04-.2 1.2-.13.2.12-.62.1-.73l-.67 2.33c-.18.85.13-.12.1.3-.2.74-.35 1.47-.65 2.3l.16-.24c-.35 1.4-.6 2.2-.96 3.1-2.42 10.4.25 2.42.25 2.42 1.37-3.9 1.75-6.06 3.1-10.87zm18.87 110.82l-.3-.14c.96.1 1.78-.02 2.62-.05.45-.14-.67-.17.28-.3l2.67-.03c-.1.1-1.05.08-.8.2.16-.06 1.5-.08 1.32-.23l.04.16c.34-.05.6.06 1.04.06.2-.04.37-.1-.12-.13.92-.07 2.2-.24 2.9-.13.9-.01.62.14.87.26.27-.02.67-.1.66-.15l.1.02.37-.1c1.8.2 3.42-.25 4.94-.03-.4.03-1.12-.03-1.13.1l1.28-.04c-.53.04-.95.12-.74.2l5.54-.32c.1.18 1.43.03 2.18.16-.1-.03-.13-.05-.12-.07-.34-.01-.46-.05.26-.1-.01.01.01.02.02.03l.32-.07c.57.07.48.1.2.13.43 0 .9-.02.53.08 1.16.06 1.26-.2 1.9-.26l3.55-.05-.22.03c.48.03.65.2 1.58.16.74-.57 2.42-.02 4.47-.2-.26-.18.8-.1.7-.25 1.98.17 3.54-.18 5.75-.04l-.1.02c.6.14 2.08.03 2.6-.1-.3.14.77.18.38.3.45-.2 2.4-.1 2.4-.1.37.17 1.8 0 2.7.13l1.17-.22-.42.15c.62-.02.74.1.5.15.28.02.42-.03.84-.05l-.2.12c.43.03.52-.05.57-.12.03-.08-.01-.13-.16-.1.33-.2.34-.25.46-.26.1-.02.25-.05.26-.43a.81.81 0 0 0-.22-.23l.08.07c-.01-.1-.03-.43-.01-.55.01-.14.05-.2.08-.28s.07-.14.08-.28c.01-.07 0-.17 0-.28-.01-.03-.02-.07-.04-.1l.12-.06c-.03-.1-.03-.2-.17-.03-.02-.04-.1-.03-.15-.06-.03 0 0-.01-.1-.02l-.87-.06-2.07-.16c-.92.03.35.1-.1.2-.98.18-1.28-.04-2.15-.1l.24.13-1.77-.07.25-.1-1.2-.02c-.34.08.17.07.55.12-1.28-.04-2.34.3-3.64.07l.15-.12c-.01.03.18.04.3.02 1.3-.2-.95-.13-1-.22-.37.15-1.5.02-2 .23-2.27-.3-4.05.1-5.77-.08.45-.1-.56-.08-.52-.2-.76-.1-.57.15-1.25.12l-.62-.17c-1.6.23-1.1-.24-2.64-.14-1 .2-2.32-.2-3.82.03l-.05-.12c-1.15.1-1.74-.14-2.67-.07-.24-.13.23-.07.2-.23-.95.1.25-.26-.4-.12-1.33-.16-2.65.5-3.92.46-1.37.2-2.55-.32-2.8-.01l.7.03-1.88.01-.05-.1c-.77.07-2.58-.1-3.53.08.01-.01-.06-.02-.1-.04-.97.1-1.23-.07-2.1.1l.1-.05c-1.53.26-4.85.16-7.22.2-.07-.17-1.44-.1-2.43-.08.3 0 .34-.08.4-.1-1.37.2-2.87-.22-4.3-.01l.05-.02c-.54-.1-2.2.15-2.45-.14-.8.1-1.57.16-2.43.16-.2 0-.43 0-.66-.01-.16 0-.2-.01-.3-.02l-.3-.03c-.08-.03-.05.05-.06.1v.16l-.05-.07c-.1.2-.06 1.37-.08 2-.08.67.15 1.1.42 1.47.22.27.43.44.63.57.2.07.43.12.66.12h3.08l2.55-.28c1.05.12 2 .14 3.57.02z"/><path d="M274.63 422.14c-.17.25-.35.24-.44.55-.08.13-.12.28-.16.42.08.12-.08.17-.03.3h-.08c.02.04.03.08-.02.1h-.02c.03.06-.02.1-.01.12h-.02l-.01.05-.02-.02a.2.2 0 0 1-.07.21l.08.03c-.15.08-.01.2-.17.27l-.02-.01c.13.25-.25.16-.14.4-.01-.03-.04-.01-.06-.02-.01.08-.04.16.1.24-.03.05-.07.02-.13-.01.07.03.07.1.06.13l-.02-.03-.03.12.14.04c-.07.04-.16-.06-.16.01l.1.05c-.06.07-.24.04-.36.08-.2.3-.12.8-.46 1l-.1-.03c-.12-.05.13.17.01.13l.03.06c-.03 0-.06.01-.07-.02-.02.03 0 .04.02.08h-.1c-.12.1-.04.28-.14.4-.23.1-.25.47-.26.68.04.34-.56.4-.5.75-.02 0 .01.04.02.05l-.14.23s-.62 1.1.77.73h.02c.13-.1.18-.17.1-.32.16.06.07-.1.13-.1h.01c-.08-.14.18-.1.1-.24.01.01.05.03.05.05.01-.06.01-.16.1-.12.04-.14.18-.3.08-.46l.02.02c-.07-.1.02-.07 0-.15.01 0 .02 0 .03.01-.07-.1.06-.16.04-.22l.06.03.04-.1-.03.03c-.16-.1.14-.03.07-.16.06-.06-.27-.32-.15-.35-.06-.07.1.1.08.01.1.04.04.05.12.07-.01-.07.13-.04.1-.13l.07.03c-.08-.14.17-.1.08-.22-.01-.1.23.04.14-.1h.1c.03-.03-.1-.08-.03-.1.06.03.07-.03.1.02.14-.05-.03-.26.2-.3-.1-.08 0-.1-.07-.18.05.02.07-.12.14 0 .01.01 0 .02-.02.01l.06.04c.16-.01 0-.16.05-.22-.03.01-.04.04-.08 0l.04-.06.05.04.08-.08-.07-.02c.06-.03.18.01.1-.1-.04-.05-.1 0-.1-.06.08-.04.2-.1.26-.17-.08-.03-.07-.05-.07-.08l.07.03c-.05-.13.16.04.13-.08l.04.03-.13-.1c-.1-.14.16.03.02-.15-.01.04-.15-.06-.1-.1l.06.04c0-.03-.02-.05 0-.06.03.03.1.05.1.02l.07.06-.1-.12c.1-.01.05-.14.15-.1 0 0 .1-.08.01-.16.05.05.1.01.17.06-.06-.06-.07-.17.02-.17v.01c.14-.08 0-.26.15-.32-.08-.03-.01-.07-.1-.1-.04-.16.3-.1.02-.3.01-.06.1-.02.13-.04v.02c.02-.1.04-.14.08-.2-.01-.05-.15-.13-.08-.17.05.05.05.02.06-.01 0 .02.02.04.07.02-.02-.01-.02-.03-.03-.04.01-.04-.01-.04-.03-.03-.01-.01-.02-.01-.04-.01.1 0 .05-.12.15-.07.04-.13-.02-.27 0-.4.06.01.1.06.1.1l.02-.08c.07.04.02.06.02.1.16-.02-.03-.23.13-.28l-.05-.05h.01c-.03-.01-.06-.06-.06-.08.07.02.14.07.16.02.08-.01.03-.12.02-.2-.02.02-.05 0-.07-.03.01-.03.08-.01.06-.04l.1.04c-.08-.03-.05-.1-.08-.13.07.02.03.07.08.1l.06-.15c-.04-.08-.08-.03-.15-.1.01-.05-.03-.13.05-.16l-.08-.02c-.01-.12.02-.16.13-.18-.28-.96-.76-.56-.76-.56-.28.16-.13.4-.23.74zm5.02 2.1c-.17.24-.35.24-.42.54-.08.12-.1.28-.16.4.08.12-.08.17-.02.28h-.08c.02.04.03.08-.02.1l-.02-.01c.03.06-.02.1 0 .12l-.02-.01v.05-.02c.02.1-.01.16-.06.2l.08.03c-.15.08-.01.2-.17.27h-.02c.14.24-.25.15-.13.4-.02-.03-.04-.01-.06-.02-.01.08-.04.15.12.23-.03.05-.07.02-.13-.01.07.03.07.1.06.13l-.02-.03-.03.12.14.04c-.07.04-.16-.06-.16.01l.1.05c-.06.07-.24.04-.36.08-.2.3-.1.78-.44.98l-.1-.03c-.12-.05.13.17.02.13l.04.06c-.03 0-.06.01-.07-.02-.02.03 0 .04.02.08h-.1c-.12.1-.03.28-.13.4-.23.1-.24.46-.25.67.05.33-.55.4-.48.73-.02 0 .01.04.02.05l-.13.22s-.6 1.1.78.72h.02c.12-.1.18-.17.1-.32.16.06.07-.1.13-.1h0c-.08-.14.18-.1.1-.23.01.01.05.03.05.05.01-.06.01-.15.1-.1.04-.14.17-.3.07-.45l.02.02c-.07-.1.02-.07-.01-.14.01 0 .02 0 .03.01-.07-.1.06-.16.04-.22l.06.03.04-.1-.03.03c-.16-.1.14-.03.07-.15.06-.06-.27-.3-.16-.34-.06-.07.1.1.08.01.1.04.04.05.12.07-.02-.07.13-.04.1-.13l.07.03c-.08-.14.16-.1.07-.22-.01-.1.23.04.14-.1l.1.01c.03-.03-.1-.08-.03-.1.06.03.07-.03.1.02.14-.05-.03-.25.18-.3-.1-.08 0-.1-.07-.17.05.02.07-.12.14 0 .01.01 0 .02-.02.01l.06.04c.16-.01 0-.16.05-.22-.03.01-.04.04-.08 0l.04-.06.05.04.08-.08h-.07c.06-.03.18.01.1-.1-.04-.05-.1 0-.1-.06.08-.04.2-.1.26-.17-.08-.03-.07-.05-.07-.08l.07.03c-.05-.13.16.04.13-.08l.04.03-.13-.1c-.1-.14.16.03.02-.15-.01.04-.16-.06-.1-.08l.06.04c0-.03-.03-.05 0-.06.03.03.1.05.1.02l.07.06-.1-.12c.1-.01.05-.13.15-.1 0 0 .1-.08.01-.16.05.05.1.01.17.06-.06-.06-.07-.17.02-.17l.01.01c.14-.08 0-.26.14-.32-.08-.03-.01-.07-.12-.1-.04-.16.3-.1.02-.3.01-.06.1-.02.13-.04v.02a.42.42 0 0 1 .07-.2c-.01-.05-.15-.13-.1-.17.05.05.05.02.06-.01 0 .02.02.03.07.02-.02-.01-.02-.03-.03-.04.01-.04-.01-.04-.03-.03-.01-.01-.02-.01-.04-.01.1 0 .05-.12.15-.07.04-.13-.02-.26-.01-.38.06.01.1.06.1.1v-.08c.07.04.02.06.03.1.16-.02-.03-.23.12-.27l-.05-.05h.01c-.03-.01-.06-.06-.06-.08.07.02.14.07.16.02.08-.01.02-.12.01-.2-.02.02-.05 0-.07-.03.01-.02.08-.01.06-.04l.1.04c-.08-.03-.05-.1-.08-.13.07.02.04.06.08.1l.06-.15c-.04-.08-.08-.03-.15-.1.01-.05-.03-.13.05-.15l-.08-.02c-.02-.1.02-.16.12-.18-.3-.94-.77-.55-.77-.55-.3.15-.16.4-.25.72zm-38.9 7.3c.53.2.6.4 1.18.53.25.1.54.18.8.26.17-.07.32.14.5.1l.02.1c.06-.01.13-.01.16.05h-.01c.1-.02.16.05.2.04v.02l.1.03h-.03a.65.65 0 0 1 .37.15l.03-.08c.2.2.35.1.5.32l-.01.02c.38-.05.32.37.7.36-.05 0-.01.05-.03.06.13.06.27.13.36-.01.08.06.04.1.01.16.04-.06.13-.03.2.01h-.05l.2.12.05-.14c.07.1-.08.16.04.2l.07-.1c.13.12.08.33.15.5.47.45 1.2.8 1.44 1.43l-.05.08c-.1.1.25.02.18.1h.1c-.01.03 0 .08-.04.07.04.06.05.05.12.06l-.02.1c.12.24.35.36.5.6.05.37.48.84.72 1.14.4.4.16 1.15.52 1.57-.01.02.04.05.05.05l.12.47s.14.57.3.9c.15.3.47.5.82-.56l.03.01c.01-.3-.02-.48-.2-.64.16-.08-.05-.23-.01-.3h.02c-.17-.13 0-.38-.17-.5.02 0 .06-.01.08.03-.06-.1-.15-.26-.06-.3-.13-.27-.24-.68-.47-.78h.03c-.14-.05-.07-.12-.17-.2.01-.01.01-.02.02-.02-.15-.06-.17-.3-.25-.36l.06-.04-.12-.2.03.08c-.17.06.02-.2-.17-.3-.06-.15-.5-.08-.5-.27-.1-.02.15-.02.04-.08.08-.05.08.01.13-.05-.1-.07-.02-.2-.15-.3l.06-.05c-.22-.08-.1-.35-.3-.37-.16-.12.1-.23-.14-.3l.03-.12c-.04-.08-.14.03-.15-.08.05-.03-.03-.13.05-.12-.05-.24-.4-.24-.45-.57-.13.04-.17-.12-.27-.1.03-.04-.2-.2 0-.18.02 0 .03.02.02.04l.07-.04c-.01-.2-.26-.16-.36-.3.02.05.07.1 0 .1l-.1-.1.07-.02-.13-.18-.03.08c-.05-.1.01-.23-.16-.23-.08.01.01.14-.1.1-.07-.13-.2-.34-.32-.48-.04.08-.08.04-.13.02l.04-.06c-.22-.04.04-.17-.17-.23l.05-.03-.14.1c-.23.01.02-.18-.26-.14.07.04-.07.15-.12.07l.06-.04c-.05-.02-.08-.01-.1-.04.05-.01.07-.08 0-.1l.1-.04-.2.02c-.05-.13-.25-.14-.24-.25 0 0-.18-.18-.28-.1.08-.03-.02-.13.05-.18-.1.03-.3 0-.3-.1h.02c-.2-.2-.46-.14-.64-.34-.03.08-.12-.02-.15.1-.27-.02-.3-.4-.54-.14-.1-.03-.1-.13-.14-.17l.03-.01c-.2-.06-.27-.1-.4-.16-.1 0-.16.14-.28.05.07-.04.01-.05-.04-.07.04 0 .05-.01.01-.08-.02.01-.04.02-.05.02-.1-.03-.08-.01-.05.01-.01.01-.01.02 0 .04-.05-.1-.24-.1-.2-.2-.26-.08-.48-.03-.7-.07 0-.06.06-.1.13-.1l-.15-.03c.03-.08.1-.01.15-.01-.13-.2-.4 0-.58-.18l-.06.05v-.01c-.01.03-.07.06-.1.06-.01-.08.05-.15-.05-.18-.06-.1-.24-.04-.36-.03.05.03.02.06-.01.08-.05-.01-.06-.1-.1-.07v-.1c0 .1-.16.05-.2.1-.01-.08.1-.04.12-.08l-.32-.07c-.13.04 0 .1-.08.16-.1-.01-.2.03-.3-.05l.02.1c-.2.02-.3-.02-.4-.13-.77.18-.85.42-.78.58.06.16.3.27.3.27.44.24.76.07 1.4.18zm-63.2 15.18l-.3-.14c.96.1 1.78-.02 2.62-.05.45-.14-.67-.17.28-.3l2.67-.03c-.1.1-1.05.08-.8.2.16-.06 1.5-.08 1.32-.23l.04.16c.34-.05.6.06 1.04.06.2-.04.37-.1-.12-.13.92-.07 2.2-.24 2.9-.13.9-.01.62.14.87.26.27-.02.67-.1.66-.15l.1.02.37-.1c1.8.2 3.42-.25 4.94-.03-.4.03-1.12-.03-1.13.1l1.28-.04c-.53.04-.95.12-.74.2l5.54-.32c.1.18 1.43.03 2.18.16-.1-.03-.13-.05-.12-.07-.34-.01-.46-.05.26-.1-.01.01.01.02.02.03l.32-.07c.57.07.48.1.2.13.43 0 .9-.02.53.08 1.16.06 1.26-.2 1.9-.26l3.55-.05-.22.03c.48.03.65.2 1.58.16.74-.57 2.42-.02 4.47-.2-.26-.18.8-.1.7-.25 1.98.17 3.54-.18 5.75-.04l-.1.02c.6.14 2.08.03 2.6-.1-.3.14.77.18.38.3.45-.2 2.4-.1 2.4-.1.37.17 1.8 0 2.7.13l1.17-.22-.42.15c.62-.02.74.1.5.15.28.02.42-.03.84-.05l-.2.12c.43.03.52-.05.57-.12.03-.08-.01-.13-.16-.1.33-.2.34-.25.46-.26.1-.02.25-.05.26-.43a.81.81 0 0 0-.22-.23l.08.07c-.01-.1-.03-.43-.01-.55.01-.14.05-.2.08-.28s.07-.14.08-.28v-.28c-.01-.03-.02-.07-.04-.1l.12-.06c-.03-.1-.03-.2-.17-.03-.02-.04-.1-.03-.15-.06-.03 0 0-.01-.1-.02l-.87-.06-2.07-.16c-.92.03.35.1-.1.2-.98.18-1.28-.04-2.15-.1l.24.13-1.77-.07.25-.1-1.2-.02c-.34.08.17.07.55.12-1.28-.04-2.34.3-3.64.07l.15-.12c-.01.03.18.04.3.02 1.3-.2-.95-.13-1-.22-.37.15-1.5.02-2 .23-2.27-.3-4.05.1-5.77-.08.45-.1-.56-.08-.52-.2-.76-.1-.57.15-1.26.12l-.62-.17c-1.6.23-1.1-.24-2.64-.14-1 .2-2.32-.2-3.82.03l-.05-.12c-1.15.1-1.74-.14-2.67-.07-.24-.13.23-.07.2-.23-.95.1.25-.26-.4-.12-1.33-.16-2.65.5-3.92.46-1.37.2-2.55-.32-2.8-.01l.7.03-1.88.01-.05-.1c-.77.07-2.58-.1-3.53.08.01-.01-.06-.02-.1-.04-.97.1-1.23-.07-2.1.1l.1-.05c-1.53.26-4.85.16-7.22.2-.07-.17-1.44-.1-2.43-.08.3 0 .34-.08.4-.1-1.37.2-2.87-.22-4.3-.01l.05-.02c-.54-.1-2.2.15-2.45-.14-.8.1-1.57.16-2.43.16-.2 0-.43 0-.66-.01-.16 0-.2-.01-.3-.02l-.3-.03c-.08-.03-.05.05-.06.1v.16l-.05-.07c-.1.2-.06 1.37-.08 2-.08.67.15 1.1.42 1.47.22.27.43.44.63.57.2.07.43.12.66.12h3.08l2.55-.28c1.06.12 2 .14 3.58.02z"/><path d="M201.8 422.14c-.17.25-.35.24-.44.55-.08.13-.12.28-.16.42.08.12-.08.17-.03.3h-.08c.02.04.03.08-.02.1h-.02c.03.06-.02.1-.01.12h-.02l-.01.05v-.02a.2.2 0 0 1-.07.21l.08.03c-.15.08-.01.2-.17.27l-.02-.01c.13.25-.25.16-.14.4-.01-.03-.04-.01-.06-.02-.01.08-.04.16.1.24-.03.05-.07.02-.13-.01.07.03.07.1.06.13l-.02-.03-.03.12.14.04c-.07.04-.16-.06-.16.01l.1.05c-.06.07-.24.04-.36.08-.2.3-.12.8-.46 1l-.1-.03c-.12-.05.13.17.01.13l.03.06c-.03 0-.06.01-.07-.02-.02.03 0 .04.02.08h-.1c-.12.1-.04.28-.14.4-.23.1-.25.47-.26.68.04.34-.56.4-.5.75-.02 0 .01.04.02.05l-.14.23s-.62 1.1.77.73h.02c.13-.1.18-.17.1-.32.16.06.07-.1.13-.1h.01c-.08-.14.18-.1.1-.24.01.01.05.03.05.05.01-.06.01-.16.1-.12.04-.14.18-.3.08-.46l.02.02c-.07-.1.02-.07 0-.15.01 0 .02 0 .03.01-.07-.1.06-.16.04-.22l.06.03.04-.1-.03.03c-.16-.1.14-.03.07-.16.06-.06-.27-.32-.15-.35-.06-.07.1.1.08.01.1.04.04.05.12.07-.01-.07.13-.04.1-.13l.07.03c-.08-.14.17-.1.08-.22-.01-.1.23.04.14-.1h.1c.03-.03-.1-.08-.03-.1.06.03.07-.03.1.02.14-.05-.03-.26.2-.3-.1-.08 0-.1-.07-.18.05.02.07-.12.14 0 .01.01 0 .02-.02.01l.06.04c.16-.01 0-.16.05-.22-.03.01-.04.04-.08 0l.04-.06.05.04.08-.08-.07-.02c.06-.03.18.01.1-.1-.04-.05-.1 0-.1-.06.08-.04.2-.1.26-.17-.08-.03-.07-.05-.07-.08l.07.03c-.05-.13.16.04.13-.08l.04.03-.13-.1c-.1-.14.16.03.02-.15-.01.04-.15-.06-.1-.1l.06.04c0-.03-.02-.05 0-.06.03.03.1.05.1.02l.07.06-.1-.12c.1-.01.05-.14.15-.1 0 0 .1-.08.01-.16.05.05.1.01.17.06-.06-.06-.07-.17.02-.17v.01c.14-.08 0-.26.15-.32-.08-.03-.01-.07-.1-.1-.04-.16.3-.1.02-.3.01-.06.1-.02.13-.04l.01.02c.02-.1.04-.14.08-.2-.01-.05-.15-.13-.08-.17.05.05.05.02.06-.01 0 .02.02.04.07.02-.02-.01-.02-.03-.03-.04.01-.04-.01-.04-.03-.03-.01-.01-.02-.01-.04-.01.1 0 .05-.12.15-.07.04-.13-.02-.27 0-.4.06.01.1.06.1.1l.02-.08c.07.04.02.06.02.1.16-.02-.03-.23.13-.28l-.05-.05h.01c-.03-.01-.06-.06-.06-.08.07.02.14.07.16.02.08-.01.03-.12.02-.2-.02.02-.05 0-.07-.03.01-.03.08-.01.06-.04l.1.04c-.08-.03-.05-.1-.08-.13.07.02.03.07.08.1l.06-.15c-.04-.08-.08-.03-.15-.1.01-.05-.03-.13.05-.16l-.08-.02c-.01-.12.02-.16.13-.18-.28-.96-.76-.56-.76-.56-.28.16-.13.4-.23.74zm5.03 2.1c-.17.24-.35.24-.42.54-.08.12-.1.28-.16.4.08.12-.08.17-.02.28h-.08c.02.04.03.08-.02.1l-.02-.01c.03.06-.02.1 0 .12v-.01.05l-.02-.02c.02.1-.01.16-.06.2l.08.03c-.15.08-.01.2-.17.27h-.02c.14.24-.25.15-.13.4-.02-.03-.04-.01-.06-.02-.01.08-.04.15.12.23-.03.05-.07.02-.13-.01.07.03.07.1.06.13l-.02-.03-.03.12.14.04c-.07.04-.16-.06-.16.01l.1.05c-.06.07-.24.04-.36.08-.2.3-.1.78-.44.98l-.1-.03c-.12-.05.13.17.02.13l.04.06c-.03 0-.06.01-.07-.02-.02.03 0 .04.02.08h-.1c-.12.1-.03.28-.13.4-.23.1-.24.46-.25.67.05.33-.55.4-.48.73-.02 0 .01.04.02.05l-.13.22s-.6 1.1.78.72h.02c.12-.1.18-.17.1-.32.16.06.07-.1.13-.1h.01c-.08-.14.18-.1.1-.23.01.01.05.03.05.05.01-.06.01-.15.1-.1.04-.14.17-.3.07-.45l.02.02c-.07-.1.02-.07-.01-.14.01 0 .02 0 .03.01-.07-.1.06-.16.04-.22l.06.03.04-.1-.03.03c-.16-.1.14-.03.07-.15.06-.06-.27-.3-.16-.34-.06-.07.1.1.08.01.1.04.04.05.12.07-.02-.07.13-.04.1-.13l.07.03c-.08-.14.16-.1.07-.22-.01-.1.23.04.14-.1l.1.01c.03-.03-.1-.08-.03-.1.06.03.07-.03.1.02.14-.05-.03-.25.18-.3-.1-.08 0-.1-.07-.17.05.02.07-.12.14 0 .01.01 0 .02-.02.01l.06.04c.16-.01 0-.16.05-.22-.03.01-.04.04-.08 0l.04-.06.05.04.08-.08h-.07c.06-.03.18.01.1-.1-.04-.05-.1 0-.1-.06.08-.04.2-.1.26-.17-.08-.03-.07-.05-.07-.08l.07.03c-.05-.13.16.04.13-.08l.04.03-.13-.1c-.1-.14.16.03.02-.15-.01.04-.16-.06-.1-.08l.06.04c0-.03-.03-.05 0-.06.03.03.1.05.1.02l.07.06-.1-.12c.1-.01.05-.13.15-.1 0 0 .1-.08.01-.16.05.05.1.01.17.06-.06-.06-.07-.17.02-.17v.01c.14-.08 0-.26.14-.32-.08-.03-.01-.07-.12-.1-.04-.16.3-.1.02-.3.01-.06.1-.02.13-.04l.01.02a.42.42 0 0 1 .07-.2c-.01-.05-.15-.13-.1-.17.05.05.05.02.06-.01 0 .02.02.03.07.02-.02-.01-.02-.03-.03-.04.01-.04-.01-.04-.03-.03-.01-.01-.02-.01-.04-.01.1 0 .05-.12.15-.07.04-.13-.02-.26-.01-.38.06.01.1.06.1.1v-.08c.07.04.02.06.03.1.16-.02-.03-.23.12-.27l-.05-.05h.01c-.03-.01-.06-.06-.06-.08.07.02.14.07.16.02.08-.01.02-.12.01-.2-.02.02-.05 0-.07-.03.01-.02.08-.01.06-.04l.1.04c-.08-.03-.05-.1-.08-.13.07.02.04.06.08.1l.06-.15c-.04-.08-.08-.03-.15-.1.01-.05-.03-.13.05-.15l-.08-.02c-.02-.1.02-.16.12-.18-.3-.94-.77-.55-.77-.55-.32.15-.16.4-.25.72zm-38.9 7.3c.53.2.6.4 1.18.53.25.1.54.18.8.26.17-.07.32.14.5.1l.02.1c.06-.01.13-.01.16.05h-.01c.1-.02.16.05.2.04l-.01.02.1.03h-.03a.65.65 0 0 1 .37.15l.03-.08c.2.2.35.1.5.32l-.01.02c.38-.05.32.37.7.36-.05 0-.01.05-.03.06.13.06.27.13.36-.01.08.06.04.1.01.16.04-.06.13-.03.2.01h-.05l.2.12.05-.14c.07.1-.08.16.04.2l.07-.1c.13.12.08.33.15.5.47.45 1.2.8 1.44 1.43l-.05.08c-.1.1.25.02.18.1h.1c-.01.03 0 .08-.04.07.04.06.05.05.12.06l-.02.1c.12.24.35.36.5.6.05.37.48.84.72 1.14.4.4.16 1.15.52 1.57-.01.02.04.05.05.05l.12.47s.14.57.3.9c.15.3.47.5.82-.56l.03.01c.01-.3-.02-.48-.2-.64.16-.08-.05-.23-.01-.3h.02c-.17-.13 0-.38-.17-.5.02 0 .06-.01.08.03-.06-.1-.15-.26-.06-.3-.13-.27-.24-.68-.47-.78h.03c-.14-.05-.07-.12-.17-.2.01-.01.01-.02.02-.02-.15-.06-.17-.3-.25-.36l.06-.04-.12-.2.03.08c-.17.06.02-.2-.17-.3-.06-.15-.5-.08-.5-.27-.1-.02.15-.02.04-.08.08-.05.08.01.13-.05-.1-.07-.02-.2-.15-.3l.06-.05c-.22-.08-.1-.35-.3-.37-.16-.12.1-.23-.14-.3l.03-.12c-.04-.08-.14.03-.15-.08.05-.03-.03-.13.05-.12-.05-.24-.4-.24-.45-.57-.13.04-.17-.12-.27-.1.03-.04-.2-.2 0-.18.02 0 .03.02.02.04l.07-.04c-.01-.2-.26-.16-.36-.3.02.05.07.1 0 .1l-.1-.1.07-.02-.13-.18-.03.08c-.05-.1.01-.23-.16-.23-.08.01.01.14-.1.1-.07-.13-.2-.34-.32-.48-.04.08-.08.04-.13.02l.04-.06c-.22-.04.04-.17-.17-.23l.05-.03-.14.1c-.23.01.02-.18-.26-.14.07.04-.07.15-.12.07l.06-.04c-.05-.02-.08-.01-.1-.04.05-.01.07-.08 0-.1l.1-.04-.2.02c-.05-.13-.25-.14-.24-.25 0 0-.18-.18-.28-.1.08-.03-.02-.13.05-.18-.1.03-.3 0-.3-.1h.02c-.2-.2-.46-.14-.64-.34-.03.08-.12-.02-.15.1-.27-.02-.3-.4-.54-.14-.1-.03-.1-.13-.14-.17l.03-.01c-.2-.06-.27-.1-.4-.16-.1 0-.16.14-.28.05.07-.04.01-.05-.04-.07.04 0 .05-.01.01-.08-.02.01-.04.02-.05.02-.1-.03-.08-.01-.05.01-.01.01-.01.02 0 .04-.05-.1-.24-.1-.2-.2-.26-.08-.48-.03-.7-.07 0-.06.06-.1.13-.1l-.15-.03c.03-.08.1-.01.15-.01-.13-.2-.4 0-.58-.18l-.06.05v-.01c-.01.03-.07.06-.1.06-.01-.08.05-.15-.05-.18-.06-.1-.24-.04-.36-.03.05.03.02.06-.01.08-.05-.01-.06-.1-.1-.07l.02-.1c0 .1-.16.05-.2.1-.01-.08.1-.04.12-.08l-.32-.07c-.13.04 0 .1-.08.16-.1-.01-.2.03-.3-.05l.02.1c-.2.02-.3-.02-.4-.13-.77.18-.85.42-.78.58.06.16.3.27.3.27.44.24.76.07 1.4.18zm91.4-204.76v-20.6l6.9.1v.5c0 .5-.1 11.3-.3 13.8-.3 2.8-5 5.4-5.5 5.7l-1.1.5zm1.4-19.4v17.1c1.7-1.1 3.7-2.8 3.8-4 .2-2.1.3-10.5.3-12.9l-4.1-.2z"/></g><g xmlns="http://www.w3.org/2000/svg" fill="#fff"><path d="M218.4 250.13c-.5-.7-1.8-2.4-2.8-3.5l-1-1.1s-.9-.8-1.3-4-3.5-35.7-3.6-40.6c-.2-6.3 3.6-20.6 5.4-25.6 1.3-3.65 1.95-5.63 2.23-6.64l-33.4-12.55c-4.1 11.8-4.77 16.37-5.12 22.7-.5 8.3 1.4 16.3 6 29.8 4.6 13.6 15.8 40.9 15.8 40.9s.6 6.4 5.1 12.7 5.9 7.43 6.77 7.52c1.17.22 1.13-1.02 1.13-1.02s1.9 2.1 3.2 1.7c1.3-.3.58-2.26.58-2.26s1.14 1.2 1.84.7-.08-2.74-.8-5.26c-.58-2.07-1.63-7.98-1.93-9.08-.2-1 2.28 2 3.48 3.4s2.62 1 1.22-1.8-2.3-5.3-2.8-6zm127.1-72.1l.2-.87c.64-.3 1.06-.82 1-1.74-.04-.7-.57-1.08-1.25-1.3-.05-.03-.1-.08-.15-.1-.04.01-.08.01-.12.02-.95-.25-2.1-.22-2.58-.22-.4.05-1.2-.01-1.95.08l-2.55-.28c-1-.1-.4-1.7 0-3.4.7-3 1.6-5.3.1-6.6-1-.8-2.4 1.9-4.3 4.8-.5.7-1.2 1.5-2.9 2.6-1.2.8-2.1 1.8-2.1 1.8s-1.1.6-4.2.1c-3.2-.5-35.2-7.1-39.8-8.4-6.1-1.6-14.3-9.7-17.1-14.1-5-7.8-14.8-24.9-14.8-24.9s-4.1 58.1 1.5 61.5c6.5 3.9 15.9 3.9 30.2 3.5s43.7-3.2 43.7-3.2 4.9.48 11.3-.64a6.93 6.93 0 0 0 1.3.04c1.8 0 2.4-.4 2.4-1.5 0-.38-.36-.64-.86-.8.07-.07.15-.14.26-.2.02-.01.04-.04.06-.05 1.4-.14 1.94-.6 1.94-1.75 0-.3-.22-.54-.55-.73l.18-.45c1.12-.16 1.93-.6 1.86-1.8-.03-.72-.34-1.14-.8-1.4zm-125.62 30.74l.15.03c0-.01-.04-.02-.15-.03zm37.64-.01c.01 0 .03 0 .04-.01-.03 0-.03.01-.04.01zm-31.86 1.2h0c-.02 0-.04.01-.05.01l.05-.01z"/><path d="M218.08 209.86l4.58.14 3-.04c.46-.13 1.26 0 1.8-.1l.2.07c.2-.04.4-.06.6-.02l-.01.02c.28-.05.6-.02.73-.05l-.01.02h.34l-.06.03a8.69 8.69 0 0 1 1.43-.04l-.04-.1c.94.1 1.3-.08 2.14.03l-.01.02c1.07-.23 1.7.16 2.8-.06-.14.03.06.04.05.07.5-.02 1.05-.04 1.06-.2.37 0 .3.05.35.12 0-.08.32-.1.6-.1l-.13.03.83-.03-.16-.14c.44.04.1.17.53.14v-.12c.6.02.97.2 1.56.3l7.37-.04.1.1c.04.13.63-.2.72-.07l.27-.06c.07.02.23.05.1.08.25 0 .25-.02.43-.05l.26.08c.97.06 1.8-.1 2.8-.06 1.22.16 3.53.01 4.86-.07 1.87-.2 4.04.32 5.95.1.06.02.22-.02.22-.04l1.75.02s8.48.05 2.04-1.02l.04-.03c-.96-.07-1.56-.08-2.22.06-.1-.17-.8-.02-1-.07l.02-.01c-.58.13-1.2-.1-1.77.01.02-.01.03-.06.16-.06-.4.02-.97.06-1-.04-.98.03-2.35-.02-2.97.14l.04-.03c-.36.1-.46.02-.86.07-.02-.01-.05-.02-.05-.03-.4.1-1.14.02-1.45.06l-.02-.07-.78.02h.3c-.1.18-.6-.12-1.15 0-.53-.02-1.07.38-1.62.3-.26.1.23-.14-.16-.07-.01-.1.18-.06.08-.14-.38.05-.63-.1-1.1-.03v-.07c-.62.14-1.16-.1-1.57.03-.64.06-.43-.22-1.1-.08l-.26-.1c-.28-.02-.2.12-.52.07.02-.06-.4-.05-.2-.1-.7-.1-1.44.14-2.38-.03-.2.12-.67.05-.83.14-.02-.05-.94-.01-.4-.13.05-.01.13-.01.12.01l.06-.07c-.53-.14-.97.08-1.5.05.16.02.36.02.23.07l-.5-.01.1-.06-.73-.04.1.08c-.36-.04-.48-.17-.9-.06-.18.06.34.1-.04.13l-1.8-.15c.06.1-.1.08-.28.1v-.07c-.65.1-.24-.16-.88-.08l.06-.05-.17.16c-.58.15-.3-.15-.96.05.25-.01.12.16-.2.13l.08-.07c-.17.02-.23.05-.35.03.1-.04.05-.1-.2-.1l.17-.1-.48.13c-.37-.08-.96.02-1.12-.08 0 0-.8-.05-.98.06.16-.07-.28-.1-.15-.18-.2.08-.82.14-1.07.06l.05-.01c-.9-.1-1.55.12-2.37.01.04.1-.4.04-.3.15-.84.1-1.54-.23-1.84.12-.38.02-.45-.08-.65-.1l.1-.02-1.46.02c-.27.03-.3.2-.8.15.15-.06-.04-.05-.22-.05.1-.01.15-.03-.08-.08-.03.02-.08.03-.13.04 0-.01-.01-.01-.01-.02-.3.02-.25.04-.1.05-.01.01 0 .02.05.04-.3-.08-.86.01-.9-.1l-2.28.18c-.08-.06.1-.1.3-.13l-.53.02c0-.08.3-.05.47-.06-.63-.13-1.3.13-2.04.01l-.15.06H220c0 .03-.16.08-.27.1-.1-.07.01-.16-.36-.16-.3-.07-.82.03-1.2.07.2.01.14.05.05.08-.18 0-.3-.07-.43-.04l-.02-.1c.07.1-.48.1-.55.13-.1-.07.28-.06.33-.1l-1.1.01c-.4.07.07.1-.12.17-.35.02-.68.08-1.08.03l.13.08c-.65.07-1.04.06-1.47-.03-4.83.68-1.02.93-1.02.93 1.9.2 2.9-.03 5.16-.1zm-3.38 27.77l1 5c.1.8-.4 1.6-1.2 1.9l-15 4.2c-.9.3-1.8-.3-2.1-1.2l-1.1-4.5a1.79 1.79 0 0 1 1.2-2.1l15.6-4.5c.9-.4 1.5.2 1.6 1.2z"/></g><path xmlns="http://www.w3.org/2000/svg" d="M345.75 177.7c.33-.13.63-.3.85-.56.4-.4.5-.9.5-1.5 0-.65-.33-1.1-.8-1.4-.07-.16-.15-.3-.26-.43-.1-.1-.22-.2-.35-.26l-.2-.1c-.07-.01-.14 0-.2 0-.14 0-.28.01-.42.03h-.26c-.32.03-.66.03-1 .03-1.36-.03-2.76-.2-4.18-.37l-1.07-.1c-.1.01-.2-.06-.2-.17-.01-.04 0-.02 0-.1l.02-.22.08-.48.24-1.02.97-4.23c.1-.74.2-1.54-.08-2.38a2.66 2.66 0 0 0-.72-1.13c-.1-.12-.23-.18-.36-.25-.12-.08-.26-.1-.4-.12-.28-.02-.57.08-.8.23-.77.56-1.1 1.16-1.55 1.75l-1.16 1.8-1.13 1.72c-.4.5-.9.96-1.42 1.37-.52.42-1.1.75-1.7 1.2-.3.22-.56.45-.82.7l-.4.36-.3.3c-.03.02-.06.03-.1.04l-.2.06-.45.08a7.46 7.46 0 0 1-.95.05c-.64-.01-1.3-.07-1.93-.18l-3.85-.77-.54-.2c-.22-.17-3.55-.5-4-.73l-1.5-.24c-.4-.1-1.28-.3-.54-.2l-2.4-.43-1.45-.38-15.66-3.23-6.03-1.4-3.5-.84c-1.18-.3-2.3-.7-3.4-1.3-2.2-1.12-4.25-2.64-6.08-4.15-1.82-1.52-3.42-3.07-4.7-4.43l-.93-1.04c.04-.01.06-.02.06-.01 1.08-.87 3.4-2.1 4.32-2.76l.12.06 2.93-1.82-1.36.8c.06-.13.25-.27.55-.45a17.04 17.04 0 0 1 .53-.3l.16-.1c.03-.03-.04-.1-.05-.14l-.17-.33-.4-.75-.4-.75c-.22-.4-.47-.8-.77-1.2-.93-1.6-2.5-2.9-3.37-4.62-.6-.7.62.57-.2-.55.1-.12.42.5.34.13-.77-1.1-1.02-1.98-2-3.34l.07-.12c-1.34-1.73-2.03-3.58-2.98-4.7-1.28-1.85-.5-1.47-1.95-3.32l-.35-.86c-.52-.86-.56-.5-1.1-1.47.13 0-.7-1.22-.26-.73-1.24-2.2-2.95-4.17-4.77-7-.6-.46-1.56-1.84-2.03-2.16.03-.14-2.2-2.56-.8-1.27.12.1.3.33.27.34l.24.1c-1.08-1.6-2.4-2.52-3.72-3.88.37.43.9.95.5.66l-1.24-1.25.34.18-1.9-1.83.18.34c-.92-.9-1.13-1.37-2.4-2.13-.58-.33.85.9-.24.08-1.3-1.13-3.36-2.73-5.33-3.8.12.22-.4-.06-.98-.3l-.01-.14c-2.23-.82-.67-.66-2.92-1.38l-.47.03c-1.06-.2-1.3-.35-1.6-.47-.3-.1-.6-.3-1.76-.3a32.54 32.54 0 0 0-6.44-2.22l-.55-.27c-.1-.13-1.05-.18-2-.24-.96-.05-1.9 0-2.15-.13h-1.53c-.43-.06-1.36-.1-.58-.15-1.45-.03-1.5.02-2.54.17a12.41 12.41 0 0 0-1.6.11l-.63.15c-.66-.08-1.35-.13-2.13-.1.52-.02-.22-.1-.18-.12-1.93-.03-3.96.4-3.92.7-1.35.26-1.1.2-1.32.1.02.06-.26.18-.66.33l-1.43.58.45-.22c-.96.38-1.87.86-2.75 1.38l.64-.1c-1.44.73-.5-.06-1.8.82l.13.15c-1.85 1.22-3.02 1.88-4.65 3.32-3.16 3.23-5.6 7.22-7.63 11.22-2.05 4.02-3.68 8.1-5.4 11.8l-.27.28c-.26.06-.55 2.2-.85 2.42l-.26.92c-.13.23-.38.74-.25.28-.33.8-.3.84-.48 1.45l-.47.83c-1.36 3.18-2.16 6.02-3.48 9.4-.9 2-1.98 4.9-3.04 8l-.68 1.96c-.15.2.1.22.26.3l.5.18.96.35 2.36.83 1.77.6-.26.73c-1.64 4.56-2.7 8.1-3.5 11.97-.4 1.93-.68 3.96-.86 6.2-.17 2.25-.33 4.74-.2 7.66.1 2.56.37 4.64.67 6.47.3 1.83.62 3.43 1 5.02.75 3.18 1.65 6.37 3.33 11.35 1.55 4.76 3.43 9.78 5.18 14.34.94 2.13 2.3 6 3.4 8.5L192 230c.38.87.8 1.9 1.12 2.8l-.04-.05c.57 1.3 1.13 2.8 1.4 3.43l-.04-.05.64 1.6-.14-.26 1.48 3.58a2.31 2.31 0 0 0-.64 2.14l1.1 4.54c.2.56.56 1.03 1.04 1.32.33.2.7.3 1.06.3.2 0 .4-.03.6-.1l.08-.02c.08.1.16.22.25.3l.06.15c.01-.01.04.28.07.47a20.51 20.51 0 0 0 .23 1.24c.18.85.4 1.76.7 2.8l-.04-.05c1.92 5.2 3.62 8.1 7.2 12.43-.46-.54.15.27.1.23.83 1.02 1.7 2.05 2.57 2.76.43.35.9.62 1.32.7.2.03.35.02.45.02.13-.02.2-.04.2-.06.5-.03.8-.32.95-.58a11.25 11.25 0 0 0 .49.38c.5.35 1.2.9 2.18.92-.3.02-.57-.05-.83-.12.63.25 1.7.26 2.2-.62a2.05 2.05 0 0 0 .16-.52.74.74 0 0 0 0-.21c-.01-.14-.05-.3-.1-.4a1.46 1.46 0 0 0 .19.16l-.3-.35c-.01 0-.01.04-.01.07-.01-.06-.04-.13-.04-.15.45.43.52.45.58.53.04.03.05.06.16.1a1.36 1.36 0 0 0 .54.04c.13-.03.28-.07.42-.17a1.13 1.13 0 0 0 .37-.46l-.13-.01c.2-.5.12-.9.1-1.27-.04-.37-.1-.7-.18-1.03l-.42-1.84c-.3-1.2-.5-2.32-.77-3.8l-.94-4.7c-.01-.04-.03-.08-.01-.12.04-.01.07.03.1.05.12.1.23.22.35.35l1.04 1.18c.44.45.64.92 1.52 1.46.44.24.94.3 1.34.07s.56-.72.53-1.22c-.02-.22-.06-.5-.1-.65-.05-.16-.1-.33-.16-.48-.1-.3-.26-.6-.4-.9l-.8-1.62-1.5-3.3a11.34 11.34 0 0 0-.43-.85c-.2-.33-.38-.5-.57-.76l-1.14-1.4c-.75-.95-1.5-1.88-2.3-2.72l-.04-.04c-.04-.04-.1-.12-.15-.22.95-.4 1.55-1.4 1.42-2.42l-1-4.98c-.08-.73-.38-1.3-.86-1.57-.22-.13-.55-.24-.96-.17-.14-.97-.4-2.45-.36-2.76l-.2-1.34c-.01-.38-.06-1.18.03-.5-.1-1.24-.14-1.27-.26-2.16l-.05-1.34-1.35-14.2-.3-4.3 12.93-.2c11.28.07 14.27.34 25.96.23l16.98-.07a16.06 16.06 0 0 1 1.06-.06c.2-.01.4-.01.58-.02h2.3.6c.02-.16-.05-.4-.07-.58l-.37-2.4c-.28-1.83-.57-3.7-.9-5.2l-.07-1.2c-.22-1.03-.46-2.25-.56-3.3l.04.06c-.34-1.54-.56-3.3-.73-4.07l.04.06-.2-1.16 1.58.08c2.62 0 7.22.1 10.3-.07l1.2.05c1.06-.06 2.3-.12 3.37-.1l-.07.02c1.58-.1 3.37-.14 4.16-.22l-.07.02 1.92-.1-.33.05 8.1-.53-.2-.07c5.35-.27 7.3-.6 12.12-.88l-.06.03c6.07-.73 9.64-.65 15.9-1.44-.78.1.34.01.28.04l1.1-.1.54-.06c.13-.01.08-.01.16-.01h.27a27.11 27.11 0 0 0 1.96.04c1.16-.02 1.95-.1 1.97-.18 2.13-.1 1.74-.03 2.02.02-.02-.07 1.83-.23 3.48-.48l-.76.13c.67-.08 1.33-.2 2-.3.57.14 1.13.2 1.5.14 1.5 0 2.9-.2 2.9-1.9 0-.2-.1-.5-.4-.8-.06-.06-.14-.12-.2-.17 1.18-.16 2.1-.65 2.1-2.13 0-.17-.02-.48-.26-.76.5-.1.94-.27 1.26-.54.4-.4.5-.9.5-1.6-.02-.94-.42-1.46-1-1.78zM198.5 248.15c-.28-.17-.5-.45-.6-.74l-1.1-4.5c-.12-.55.12-1.07.57-1.36.06.52.17 1.08.36 1.7.22.73.4 1.43.58 2.08.32 1.17.6 2.15.92 2.93a1.04 1.04 0 0 1-.73-.13zm20.45 20.32c.04.05.03.03 0 0h0zm0-.01h0zm-3.58-21.1c.72.7 2.16 2.6 2.67 3.12.04-.03 1.93 4.3.75 1.87-.1-.2-.26-.58-.23-.56l-.2-.26c.48 1.24.98 2.4 1.54 3.5l.84 1.65c.13.26.24.53.32.8.08.27.07.28.06.36.03-.07.02-.18-.07-.5-.07-.23-.1-.3.04-.02.13.44.1.44.08.58-.04.14-.22.1-.3.04.05 0 .1 0 .12-.02-.03-.01-.06-.02-.1-.04-.04-.03-.02 0-.13-.1-.16-.14-.34-.36-.55-.6l-1.2-1.43.28.44c-.14-.18-.28-.34-.4-.5l-.63-.73c-.4-.46-.8-.9-1.15-1.1-.35-.2-.55-.24-.85-.16-.24.12-.2.17-.27.3-.03.08-.07.12-.08.25-.01.14-.01.3-.02.45.18.82.01.03.12-.2.01-.2.06-.2.06-.2.02.04-.07.15.03.86l.3 1.58.6 3.4c.3 1.56.62 3.28 1.07 4.77 0-.3.24.5.47 1.3l-.05.1c.43 1.46.34 1.75.3 1.92.01.01-.2-.06-.3-.15-.13-.07-.28-.2-.45-.34l-.8-.78-3.36-6.8a.5.5 0 1 0-.9.44l3.6 7.27c.01.02.03.03.04.04l.22.67c.17.57.1.98.1 1-.07.16-.1.16-.18.18-.1.02-.22.06-.43.03-.22-.03-.64-.15-1.27-.56.48.34.58.4.4.36-.15-.05-.5-.25-.95-.64.01-.02 0-.04.01-.06l.08.05c-.03-.03-.05-.04-.08-.07.01-.1.01-.2-.04-.3l-3.5-6.96a.49.49 0 1 0-.89.45l2.96 5.9.03.77c.01.16-.04.37-.12.42.05-.1.02-.12-.02-.1-.02.01-.05.04-.1.07-.05.02-.08.04-.35-.01.25.01.3-.03.32-.1-.03.03-.03.05-.14.05-.16 0-.26-.01-.38-.06-.26-.1-.58-.3-.87-.55-1.26-1.26-3.12-3.64-3.5-4.3l-1.26-1.73-1.62-2.3c.47.65-.64-1.24-.24-.75a20.75 20.75 0 0 1-1.25-2.25c-.44-.94-.83-1.94-1-2.53l.1.2c-.37-1.06-.66-2.07-.9-3.03-.12-.48-.22-.95-.3-1.42l-.03-.2c.27.05.54.1.84.1 1.33 0 2.88-.5 4.48-1 3.26-.9 4.87-2.05 4.95-3.48l2.02-.57c.12.22.2.42.5.7l-.05-.05c.4.52.85.98 1.22 1.5zm-2.05-10.48c.12-.06.23-.08.33-.08.07 0 .14.02.2.05.2.1.33.42.37.83l1 5c.07.58-.3 1.15-.84 1.36l-2.75.77c-.17-1.08-.54-2.6-.88-3.97-.23-.9-.44-1.77-.55-2.35-.07-.25-.13-.46-.2-.65l3.32-.97zm3.2-67.47l-.3.94-.65 1.95-1.38 4c-.85 2.65-1.5 5.1-1.82 6.67l.03-.22c-.36 1.8-.58 2.3-1 4.28-.04.1-.08.24-.08.22-.36 1.95-1.2 5.67-1.4 7.27l-.08.1c-.13.82-.22 1.65-.3 2.48.06.28-.07 1-.16 2.04-.12 1.05-.12 2.43.04 3.84.15 2.68.78 5.4.92 8.16.2 1.3-.24-1.15-.01.82-.1.07-.14-.92-.17-.4.2 1.93.18 3.2.45 5.57l-.07.1c.4 3.1.44 5.9.76 7.95.36 3.2-.02 2.18.44 5.5l.02 1.3c.12 1.43.22 1 .33 2.6-.07-.1.15 2 0 1.1.01.17.03.34.05.52l-2.6.75c-.32-.43-.75-.66-1.4-.97h-.01c-1.28-.55-4.8.5-8.4 1.73l-.5.17c-1.06.45-1.65 1.2-1.83 2.3-1.2-3.04-2-5.54-2.74-6.6-.73-1.8-.77-2.17-1.12-3.12l.2.43-2.7-6.9c-.5-1.25-.74-1.4-1.57-3.67.34.7-.02-.2-.34-1.06.2.54.3.7-.08-.43a7.69 7.69 0 0 1-.27-.61c0-.01-.01-.06 0-.04-.55-1.4-.48-1.15-.24-.5-.02-.03-.01.03.05.24-.47-1.5-1.53-4.1-1.48-4.32l-3.9-10.9c-.07-.42.23.4.6 1.44l-.83-2.55c.08 0 .5 1.46.77 2.24-.85-3.07-2.1-6.24-2.85-9.9l-.24-.74-.04-.22c-.03.02-.26-.8-.38-1.33-.03-.53.16 0-.2-1.8-.2-1.44-.67-4.08-.8-6 .06 1.03 0 .7-.06.26-.07-.92.01-1.45-.05-2.16l.07-.07c-.07-.1-.05-2.45-.05-2.77.1-.52-.01 1.43.06 1.66.04-1.84.1-2.3.1-2.77.03-.46.04-.93.22-2.77.15-1.97-.13.35-.1-.6.18-1.73.38-3.43.86-5.38l-.22.6c.63-3.23 1.2-5.12 1.93-7.2l1.67-5.7 1.4.48c6.33 2.04 13.27 5.55 19.77 7.6a2.89 2.89 0 0 0 .76.22l5.82 2.22 5.13 1.9c-.03.04-.04.06-.04.08zm19.42-67.64l-.33-.15c.3.05.4.1.33.15zM346 176.43c-.5.6-1.7.7-2.6.7-1.3.1-3.4-.2-4.1-1-.2-.3-.2-.5-.2-.8.1-.54.58-.8 1.2-.9l3.7-.05c1.5.1 2.3.45 2.3 1.15 0 .4-.1.7-.3.9zm-11.2 10.4l.44-.1c-.97.1-1.3.14-1.95.16.58-.07.3-.1-1.13-.06l.96-.12a48.9 48.9 0 0 1-2.7.17l-1.73-.1-.28-.02-.3.03-.47.04-.93.1c-1.2.1-2.26.2-2.7.2 0 0-4.54.36-5.57.56.9-.15-1.6.04-.9-.1-1.17.18-4.64.54-6.03.57l.26-.03c-5.15.33-8.8.82-13.4 1.03.22.08-2.23.2-1.62.26-4.77.43-8.72.28-10.43.68-2.17.1-2.58 0-3.7.02l.52-.03-8.3.15c-1.5.02-1.75.2-4.45.07.88-.03-.23-.06-1.24-.1.65.02.85.01-.48-.1-.1.01-.23 0-.36 0-.47-2.45-.87-4.94-1.2-7.16l-.1.23c-.7-5.3-1.32-7.17-1.92-11.96l.05.06c-1.2-5.1-1.33-8.46-2.28-13.17 2.03-1.25 3.98-2.48 5.04-3.32l-.1.12c.76-.63 1.18-.8 1.86-1.24.73.8 1.67 1.86 2.66 2.83 1.1 1.12 2.23 2.15 2.94 2.72l.05.13c.7.6 1.45 1.18 2.2 1.73.3.1.93.64 1.9 1.3.96.67 2.25 1.5 3.8 2.07 1.44.6 2.97.8 4.47 1.08 1.52.26 3.04.52 4.55.9 1.47.23-1.3-.14.87.27.05.1-1.02-.16-.48.03 2.14.42 3.47.85 6.1 1.35l.1.1c3.46.6 6.45 1.46 8.76 1.8 3.55.67 2.33.7 6.04 1.32l1.4.4c1.58.34 1.16.1 2.9.5-.12.04 2.2.5 1.17.35 1.5.34 3.02.63 4.62.9.8.14 1.66.27 2.55.3.45.02.9.02 1.38-.02.24-.02.48-.05.73-.1.12-.02.25-.05.38-.1.1-.03.35-.1.5-.2.94-1 1.67-1.5 2.87-2.26.45-.4 1.25-1.03 1.87-1.82.62-.8 1.02-1.56 1.23-1.95.06-.04.77-1.2 1.3-1.93.55-.72.88-1.1.07.05-.14.2-.4.58-.4.54l-.13.34c.44-.6.85-1.2 1.25-1.64a1.86 1.86 0 0 1 .29-.28c.1-.08.07-.06.1-.08.02 0 .04-.01.05 0 .01 0 .02.01.02.01.02.02.1.07.1.12.62.68.42 2.1.07 3.5.25-.85.4-1.94.32-1.2-.15.87-.4 1.76-.63 2.67l.08-.58-.5 2c-.1.33-.18.67-.26 1.03-.04.18-.08.37-.1.57l-.03.3c0 .1-.01.32.02.45-.03-.4.04-.6.1-.8a6.29 6.29 0 0 0-.05.43 1.11 1.11 0 0 0 .01.26c-.27.86-.9 2.78-2.15 3.87-.8.7-2.8 1.1-2.8 1.1-.3 0-.5.2-.5.4 0 .3.2.5.4.5.05 0 .6-.07 1.26-.27 1.7 3.5.04 5.27-.06 5.37-.2.2-.2.4 0 .6.1.1.2.1.3.1s.2 0 .3-.1 2.1-2.22.3-6.26c.46-.2.92-.42 1.3-.74 1.37-1.28 1.97-2.84 2.2-3.55.05.03.1.07.16.1.62.16.85.16 1.1.2-.24.24-.4.55-.45.97-.1.5 0 1 .4 1.4.3.3.68.5 1.12.7-1.2.23-2.26.72-2.42 1.8 0 .4.1.8.4 1.1.23.28.56.5.96.7-.74.15-1.3.47-1.36 1.2 0 .5.2.9.5 1.3.2.22.45.4.74.54-.7.13-1.28.4-1.34 1.16 0 .4.1.8.4 1.1l-1.83.28c1.47-.2.73.08-1.03.2zm6.2-.5c-1.2.1-2.2-.2-2.6-.6-.2-.2-.2-.3-.2-.5 0-.4 1.1-.5 1.9-.5h1c.7 0 1.6 0 1.7.5.3.8.1 1.1-1.8 1.1zm.7-2.6c-1.6 0-2.8-.3-3.3-.8-.1-.1-.2-.4-.2-.6.1-.6 1.5-.6 2.5-.7.07-.02.13-.02.2-.04.67.1 1.3.14 1.8.14h.4c.1 0 .18-.01.27-.01.36.1.63.2.73.3.2.2.2.3.2.3 0 .8-.2 1.4-2.6 1.4zm4.1-3.4c-.5.5-1.7.5-2.9.5-1.7 0-3.7-.4-4.3-1.1-.2-.2-.2-.3-.2-.5.08-1.04 2.16-1.25 3.5-1.3.48.06.93.1 1.3.1h.2c.32 0 .66-.01 1-.04 1.03.12 1.56.46 1.7 1.34 0 .5-.1.8-.3 1z"/><path xmlns="http://www.w3.org/2000/svg" d="M277.87 161.3l-.37-.28.37.28zm-38.5-58.95c.01 0 .01 0 .02.01l.2-.01h-.23zm-29.94 95.35l.08-.6v-.02l-.08.63z"/><g xmlns="http://www.w3.org/2000/svg" fill="#fff"><path d="M236.47 131.9l-.05.15c.02-.01.03-.04.05-.15zm-8.14 37.03c0 .01 0 .02-.01.04.01-.03.01-.04.01-.04zm6.43-31.36h0v-.05.05z"/><path d="M235.5 130l-.48 4.57-.27 3c.07.47-.15 1.26-.1 1.8l-.1.2a1.37 1.37 0 0 1-.06.6l-.02-.01c.01.28-.06.6-.05.73v-.01l-.04.34-.02-.06a7.67 7.67 0 0 1-.17 1.42l.1-.02c-.25.92-.13 1.3-.38 2.1v-.02c.06 1.1-.46 1.65-.44 2.78 0-.14-.05.05-.07.03-.07.5-.16 1.05 0 1.1-.08.36-.12.3-.2.32.07.01.04.34-.02.62v-.14l-.15.82.17-.13c-.13.42-.2.07-.25.5l.12.02c-.15.6-.4.9-.63 1.46-.6 2.38-1 5.02-1.85 7.16l-.1.07c-.14.01 0 .66-.13.7l-.02.27c-.04.06-.1.2-.1.07-.08.23-.06.25-.07.43l-.15.23c-.34.9-.45 1.74-.8 2.7-.53 1.12-1.17 3.34-1.57 4.6-.25.9-.7 1.82-1.17 2.72-.15.3-.17.3-.2.35-.02.08-.1-.01-.16-.02l-.04-.02-.17-.05-.36-.1c-.24-.07-.48-.13-.72-.17-.05-.04-.22-.05-.22-.03l-1.68-.55s-8.14-2.62-2.26.35l-.05.01c.9.36 1.47.55 2.15.62.05.2.75.26.95.38l-.02.01c.6.05 1.12.47 1.7.53-.03.01-.05.05-.18.01l.32.08.4.12c.3.1.55.2.6.25l.3.1c.02 0 .06.03.07.01l.04-.08.07-.16.3-.64.22-.5.16-.4c.2-.5.37-1 .4-1.32l.01.05c.03-.38.16-.44.25-.84.02-.02.04-.04.04-.03.04-.4.4-1.08.46-1.4h.07l.25-.74-.1.27c-.14-.16.32-.52.4-1.1.2-.5 0-1.14.26-1.64 0-.28.06.26.12-.13.1.02 0 .2.1.12.08-.38.3-.57.38-1.04h.08c.06-.63.46-1.1.45-1.52.13-.63.34-.35.4-1.03l.17-.22c.1-.27-.06-.23.08-.52.06.04.16-.37.17-.18.3-.66.28-1.44.7-2.3-.06-.23.13-.67.1-.84.06-.01.25-.92.23-.37 0 .05-.02.13-.04.1l.05.08c.27-.5.18-.97.33-1.48-.06.15-.1.35-.12.2l.14-.48.03.12.22-.7-.1.08c.12-.34.28-.44.27-.86-.02-.2-.18.3-.1-.07l.58-1.74c-.1.04-.05-.12-.04-.3h.08c.04-.66.2-.2.27-.86l.04.07-.12-.2c-.02-.6.22-.28.16-.96-.04.25-.2.1-.1-.22l.05.1c.02-.17 0-.24.04-.35.02.1.1.08.13-.18l.05.2-.03-.5c.15-.36.16-.96.3-1.1 0 0 .2-.8.12-1 .04.17.15-.26.2-.12-.04-.22.01-.84.13-1.07v.05c.23-.9.14-1.57.38-2.37-.1.02.02-.4-.1-.3.01-.86.44-1.5.15-1.86.04-.4.14-.44.2-.64l.01.1.16-1.47c0-.27-.15-.33-.06-.8.04.16.06-.03.08-.2 0 .12.01.15.1-.08-.02-.04-.02-.1-.03-.14.01 0 .01-.01.02 0 .01-.3-.02-.25-.04-.1-.01-.01-.02 0-.04.04.1-.3.08-.87.2-.9.07-.9.02-1.56.04-2.3.06-.08.1.1.1.32l.03-.53c.08.01.02.3.02.48.18-.62-.01-1.32.16-2.05l-.05-.16.01-.04c-.03 0-.07-.17-.07-.28.08-.1.16.02.18-.35.1-.3.02-.83 0-1.22-.02.2-.06.14-.08.05.01-.18.08-.3.06-.43l.1-.01c-.1.07-.07-.5-.1-.56.08-.1.04.3.1.34l.04-1.1c-.06-.4-.1.07-.17-.12 0-.35-.05-.7.02-1.1l-.1.12c-.05-.66-.03-1.05.07-1.5-.3-2.45-.58-2.68-.7-2.33-.14.34-.2 1.3-.2 1.3-.22 1.88-.01 2.87-.07 5.14zm12.45-17.62l.04.14c.02-.01.01-.05-.04-.14zm12.07 32.95c.01.01.01.02.02.03-.01-.02-.02-.03-.02-.03zm-10.52-27.66h-.01l-.02-.03z"/><path d="M246.17 111.5l2 3.74 1.32 2.43c.3.32.52 1.05.84 1.45l.02.2c.1.14.2.3.25.5h-.02c.16.2.25.5.33.6h-.02l.14.28-.05-.04c.24.38.45.8.58 1.2l.07-.07c.25.84.55 1.06.75 1.83h-.02c.6.83.44 1.52 1.02 2.4-.07-.1-.02.07-.05.06.2.43.37.9.54.85.1.33.04.28 0 .35.07-.03.2.24.3.5l-.07-.1.28.72.08-.2c.1.4-.13.15.04.5l.1-.04c.17.54.1.92.17 1.46.66 2.17 1.6 4.47 1.96 6.56l-.06.1c-.1.07.34.5.25.62l.12.22c0 .07.01.22-.05.1.06.22.08.22.16.37l-.01.26c.17.9.52 1.6.73 2.5.13 1.14.8 3.2 1.2 4.37.6 1.64.58 3.73 1.2 5.4a.38.38 0 0 0 .08.19l.36 1.6.85 3.1c.43 1.17.76 1.56.58-1.48l.04.03c-.14-.88-.26-1.43-.54-2 .15-.13-.15-.72-.15-.93l.02.02c-.26-.5-.15-1.12-.4-1.6.02.02.07.02.1.13-.1-.37-.27-.87-.18-.92-.24-.88-.5-2.13-.8-2.67l.04.03c-.2-.3-.12-.42-.26-.77.01-.02.01-.05.01-.05-.2-.33-.27-1.03-.4-1.3l.06-.03-.2-.7.05.27c-.2-.05-.02-.56-.27-1.04-.1-.48-.62-.87-.66-1.4-.15-.2.2.17.03-.16.1-.04.1.15.15.04-.13-.33-.05-.6-.23-1l.07-.04c-.28-.52-.18-1.07-.4-1.4-.2-.56.1-.44-.2-1l.03-.26c-.05-.26-.17-.15-.2-.45.07 0-.05-.37.05-.22-.08-.67-.5-1.26-.57-2.15-.17-.15-.22-.6-.35-.7.05-.04-.23-.85.02-.4.02.04.04.1.02.1l.1.04c0-.52-.33-.85-.44-1.33.02.15.08.33-.01.22l-.12-.44.1.07-.16-.67-.05.1c-.05-.33.03-.48-.2-.8-.1-.15 0 .33-.13 0l-.37-1.66c-.07.08-.1-.07-.17-.22l.07-.04c-.3-.55.08-.26-.2-.8l.07.03-.2-.1c-.32-.46.05-.33-.35-.83.1.22-.12.16-.2-.13l.1.05c-.07-.15-.12-.2-.14-.3.07.08.12.01.02-.2l.14.12-.28-.38c-.04-.36-.34-.84-.3-1 0 0-.23-.72-.4-.84.12.12-.01-.28.1-.2-.15-.15-.4-.67-.43-.9l.03.04c-.26-.82-.68-1.3-.9-2.04-.07.07-.18-.32-.24-.2-.43-.67-.4-1.4-.83-1.52-.17-.32-.1-.42-.17-.6l.05.07-.62-1.22c-.14-.2-.3-.17-.46-.6.12.1.03-.06-.05-.2.06.1.1.1.03-.1-.03-.02-.06-.06-.1-.1-.14-.25-.13-.2-.08-.08-.01 0-.02.01-.01.06-.06-.3-.38-.7-.3-.8-.4-.73-.8-1.2-1.17-1.8.01-.1.13.02.25.2l-.26-.42c.07-.04.18.23.27.35-.18-.58-.7-1-.94-1.66l-.13-.1v-.04c-.03.02-.15-.1-.2-.18.01-.12.14-.08-.03-.37-.08-.27-.42-.65-.64-.93.1.17.02.14-.04.08-.1-.14-.08-.27-.18-.36l.07-.06c-.04.1-.3-.33-.38-.37.01-.12.2.2.26.2l-.55-.87c-.26-.27-.04.1-.2 0-.2-.26-.4-.5-.57-.84l-.01.14c-.4-.47-.58-.78-.74-1.16-1.56-1.68-1.9-1.68-1.83-1.34.07.33.52 1.1.52 1.1.86 1.63 1.56 2.25 2.7 4z"/></g></g></svg>